<svg width="32" height="33" viewBox="0 0 32 33" fill="none" xmlns="http://www.w3.org/2000/svg">
<path d="M16 19.2656C18.9413 19.2656 21.3333 16.8736 21.3333 13.9323C21.3333 10.991 18.9413 8.59896 16 8.59896C13.0587 8.59896 10.6667 10.991 10.6667 13.9323C10.6667 16.8736 13.0587 19.2656 16 19.2656ZM16 11.2656C17.4707 11.2656 18.6667 12.4616 18.6667 13.9323C18.6667 15.403 17.4707 16.599 16 16.599C14.5293 16.599 13.3333 15.403 13.3333 13.9323C13.3333 12.4616 14.5293 11.2656 16 11.2656ZM15.2267 29.6843C15.4524 29.8454 15.7227 29.9321 16 29.9321C16.2773 29.9321 16.5477 29.8454 16.7734 29.6843C17.1787 29.3976 26.7054 22.519 26.6667 13.9323C26.6667 8.05096 21.8814 3.26562 16 3.26562C10.1187 3.26562 5.33337 8.05096 5.33337 13.9256C5.2947 22.519 14.8214 29.3976 15.2267 29.6843ZM16 5.93229C20.412 5.93229 24 9.52029 24 13.939C24.028 19.8563 18.1494 25.1696 16 26.9123C13.852 25.1683 7.97204 19.8536 8.00004 13.9323C8.00004 9.52029 11.588 5.93229 16 5.93229Z" fill="black"/>
<path d="M16 19.2656C18.9413 19.2656 21.3333 16.8736 21.3333 13.9323C21.3333 10.991 18.9413 8.59896 16 8.59896C13.0587 8.59896 10.6667 10.991 10.6667 13.9323C10.6667 16.8736 13.0587 19.2656 16 19.2656ZM16 11.2656C17.4707 11.2656 18.6667 12.4616 18.6667 13.9323C18.6667 15.403 17.4707 16.599 16 16.599C14.5293 16.599 13.3333 15.403 13.3333 13.9323C13.3333 12.4616 14.5293 11.2656 16 11.2656ZM15.2267 29.6843C15.4524 29.8454 15.7227 29.9321 16 29.9321C16.2773 29.9321 16.5477 29.8454 16.7734 29.6843C17.1787 29.3976 26.7054 22.519 26.6667 13.9323C26.6667 8.05096 21.8814 3.26562 16 3.26562C10.1187 3.26562 5.33337 8.05096 5.33337 13.9256C5.2947 22.519 14.8214 29.3976 15.2267 29.6843ZM16 5.93229C20.412 5.93229 24 9.52029 24 13.939C24.028 19.8563 18.1494 25.1696 16 26.9123C13.852 25.1683 7.97204 19.8536 8.00004 13.9323C8.00004 9.52029 11.588 5.93229 16 5.93229Z" fill="black"/>
</svg>
