<svg width="32" height="33" viewBox="0 0 32 33" fill="none" xmlns="http://www.w3.org/2000/svg">
<path d="M8.17674 13.0196L8.17676 13.0196L8.5303 12.666C8.53031 12.666 8.53031 12.666 8.53032 12.666C8.62794 12.5684 8.78621 12.5684 8.88385 12.666C8.88385 12.666 8.88385 12.666 8.88385 12.666L15.6464 19.4286L16 19.7822L16.3535 19.4286L23.1161 12.666C23.2138 12.5684 23.372 12.5684 23.4696 12.666L23.8232 13.0196C23.9208 13.1172 23.9208 13.2755 23.8232 13.3731L16.1767 21.0196C16.0791 21.1172 15.9209 21.1172 15.8232 21.0196L8.17674 13.3731C8.17674 13.3731 8.17674 13.3731 8.17674 13.3731C8.07911 13.2755 8.07911 13.1172 8.17674 13.0196Z" fill="black" stroke="black"/>
</svg>
