<svg width="80" height="81" viewBox="0 0 80 81" fill="none" xmlns="http://www.w3.org/2000/svg">
<path fill-rule="evenodd" clip-rule="evenodd" d="M69.1 24.2337L68.6333 23.4003C68.0313 22.3926 67.1823 21.5551 66.1666 20.967L43.8 8.06699C42.7873 7.47949 41.6377 7.16906 40.4667 7.16699H39.5C38.329 7.16906 37.1793 7.47949 36.1667 8.06699L13.8 21.0003C12.7899 21.5845 11.9509 22.4236 11.3667 23.4337L10.9 24.267C10.3125 25.2798 10.0021 26.4295 10 27.6003V53.4337C10.0021 54.6047 10.3125 55.7543 10.9 56.767L11.3667 57.6003C11.966 58.5986 12.8016 59.4343 13.8 60.0337L36.2 72.9336C37.2077 73.5333 38.3607 73.8447 39.5333 73.8336H40.4667C41.6377 73.8316 42.7873 73.5213 43.8 72.9336L66.1666 60.0003C67.1866 59.4293 68.029 58.587 68.6 57.567L69.1 56.7337C69.6803 55.718 69.9903 54.5703 70 53.4003V27.567C69.998 26.3961 69.6876 25.2465 69.1 24.2337ZM39.5 13.8337H40.4667L60 25.1003L40 36.6337L20 25.1003L39.5 13.8337ZM43.3333 65.5003L62.8333 54.2337L63.3333 53.4003V30.867L43.3333 42.4337V65.5003Z" fill="black"/>
</svg>
