<svg width="16" height="17" viewBox="0 0 16 17" fill="none" xmlns="http://www.w3.org/2000/svg">
<path fill-rule="evenodd" clip-rule="evenodd" d="M13.82 5.34595L13.7267 5.17928C13.6063 4.97774 13.4365 4.81024 13.2333 4.69262L8.76 2.11262C8.55746 1.99512 8.32753 1.93303 8.09333 1.93262H7.9C7.6658 1.93303 7.43586 1.99512 7.23333 2.11262L2.76 4.69928C2.55798 4.81612 2.39017 4.98393 2.27333 5.18595L2.18 5.35262C2.0625 5.55518 2.00041 5.78511 2 6.01928V11.1859C2.00041 11.4201 2.0625 11.6501 2.18 11.8526L2.27333 12.0193C2.39319 12.2189 2.56033 12.3861 2.76 12.5059L7.24 15.0859C7.44153 15.2059 7.67213 15.2681 7.90666 15.2659H8.09333C8.32753 15.2655 8.55746 15.2035 8.76 15.0859L13.2333 12.4993C13.4373 12.3851 13.6058 12.2166 13.72 12.0126L13.82 11.8459C13.9361 11.6428 13.9981 11.4133 14 11.1793V6.01262C13.9996 5.77844 13.9375 5.54851 13.82 5.34595ZM7.9 3.26595H8.09333L12 5.51928L8 7.82595L4 5.51928L7.9 3.26595ZM8.66666 13.5993L12.5667 11.3459L12.6667 11.1793V6.67262L8.66666 8.98595V13.5993Z" fill="black"/>
</svg>
