<svg width="48" height="48" viewBox="0 0 48 48" fill="none" xmlns="http://www.w3.org/2000/svg">
<path d="M35.4142 24.5864C35.2286 24.4005 35.0082 24.253 34.7656 24.1524C34.5229 24.0518 34.2628 24 34.0002 24C33.7375 24 33.4774 24.0518 33.2348 24.1524C32.9922 24.253 32.7718 24.4005 32.5862 24.5864L29.3982 27.7744C27.9202 27.3344 25.1622 26.3344 23.4142 24.5864C21.6662 22.8384 20.6662 20.0804 20.2262 18.6024L23.4142 15.4144C23.6001 15.2288 23.7475 15.0084 23.8482 14.7658C23.9488 14.5232 24.0006 14.2631 24.0006 14.0004C24.0006 13.7377 23.9488 13.4776 23.8482 13.235C23.7475 12.9924 23.6001 12.772 23.4142 12.5864L15.4142 4.5864C15.2286 4.40051 15.0082 4.25304 14.7656 4.15241C14.5229 4.05179 14.2628 4 14.0002 4C13.7375 4 13.4774 4.05179 13.2348 4.15241C12.9922 4.25304 12.7718 4.40051 12.5862 4.5864L7.16218 10.0104C6.40218 10.7704 5.97418 11.8144 5.99018 12.8804C6.03618 15.7284 6.79018 25.6204 14.5862 33.4164C22.3822 41.2124 32.2742 41.9644 35.1242 42.0124H35.1802C36.2362 42.0124 37.2342 41.5964 37.9902 40.8404L43.4142 35.4164C43.6001 35.2308 43.7475 35.0104 43.8482 34.7678C43.9488 34.5252 44.0006 34.2651 44.0006 34.0024C44.0006 33.7397 43.9488 33.4796 43.8482 33.237C43.7475 32.9944 43.6001 32.774 43.4142 32.5884L35.4142 24.5864ZM35.1602 38.0104C32.6642 37.9684 24.1242 37.2984 17.4142 30.5864C10.6822 23.8544 10.0302 15.2844 9.99018 12.8384L14.0002 8.8284L19.1722 14.0004L16.5862 16.5864C16.3511 16.8213 16.1783 17.1111 16.0833 17.4295C15.9883 17.748 15.9742 18.0851 16.0422 18.4104C16.0902 18.6404 17.2642 24.0944 20.5842 27.4144C23.9042 30.7344 29.3582 31.9084 29.5882 31.9564C29.9133 32.0263 30.2507 32.0133 30.5695 31.9186C30.8882 31.8239 31.178 31.6505 31.4122 31.4144L34.0002 28.8284L39.1722 34.0004L35.1602 38.0104Z" fill="black"/>
</svg>
