<svg width="32" height="33" viewBox="0 0 32 33" fill="none" xmlns="http://www.w3.org/2000/svg">
<path d="M26.6667 5.93359H5.33341C3.86275 5.93359 2.66675 7.12959 2.66675 8.60026V24.6003C2.66675 26.0709 3.86275 27.2669 5.33341 27.2669H26.6667C28.1374 27.2669 29.3334 26.0709 29.3334 24.6003V8.60026C29.3334 7.12959 28.1374 5.93359 26.6667 5.93359ZM26.6667 8.60026V9.28159L16.0001 17.5789L5.33341 9.28293V8.60026H26.6667ZM5.33341 24.6003V12.6589L15.1814 20.3189C15.4149 20.5023 15.7032 20.602 16.0001 20.602C16.297 20.602 16.5853 20.5023 16.8187 20.3189L26.6667 12.6589L26.6694 24.6003H5.33341Z" fill="black"/>
</svg>
