<svg width="32" height="33" viewBox="0 0 32 33" fill="none" xmlns="http://www.w3.org/2000/svg">
<path d="M23.6095 16.9899C23.4857 16.866 23.3388 16.7676 23.177 16.7006C23.0153 16.6335 22.8419 16.599 22.6668 16.599C22.4917 16.599 22.3183 16.6335 22.1565 16.7006C21.9948 16.7676 21.8478 16.866 21.7241 16.9899L19.5988 19.1152C18.6135 18.8219 16.7748 18.1552 15.6095 16.9899C14.4441 15.8246 13.7775 13.9859 13.4841 13.0006L15.6095 10.8752C15.7334 10.7515 15.8317 10.6046 15.8988 10.4428C15.9659 10.2811 16.0004 10.1077 16.0004 9.93256C16.0004 9.75745 15.9659 9.58405 15.8988 9.4223C15.8317 9.26055 15.7334 9.11361 15.6095 8.98989L10.2761 3.65656C10.1524 3.53263 10.0055 3.43432 9.84371 3.36723C9.68196 3.30015 9.50856 3.26562 9.33345 3.26562C9.15834 3.26562 8.98495 3.30015 8.82319 3.36723C8.66144 3.43432 8.5145 3.53263 8.39079 3.65656L4.77479 7.27256C4.26812 7.77923 3.98279 8.47523 3.99345 9.18589C4.02412 11.0846 4.52679 17.6792 9.72412 22.8766C14.9215 28.0739 21.5161 28.5752 23.4161 28.6072H23.4535C24.1575 28.6072 24.8228 28.3299 25.3268 27.8259L28.9428 24.2099C29.0667 24.0862 29.165 23.9392 29.2321 23.7775C29.2992 23.6157 29.3337 23.4423 29.3337 23.2672C29.3337 23.0921 29.2992 22.9187 29.2321 22.757C29.165 22.5952 29.0667 22.4483 28.9428 22.3246L23.6095 16.9899ZM23.4401 25.9392C21.7761 25.9112 16.0828 25.4646 11.6095 20.9899C7.12145 16.5019 6.68679 10.7886 6.66012 9.15789L9.33345 6.48456L12.7815 9.93256L11.0575 11.6566C10.9007 11.8132 10.7855 12.0063 10.7222 12.2186C10.6589 12.431 10.6495 12.6557 10.6948 12.8726C10.7268 13.0259 11.5095 16.6619 13.7228 18.8752C15.9361 21.0886 19.5721 21.8712 19.7255 21.9032C19.9422 21.9498 20.1672 21.9412 20.3796 21.878C20.5921 21.8149 20.7853 21.6993 20.9415 21.5419L22.6668 19.8179L26.1148 23.2659L23.4401 25.9392Z" fill="black"/>
</svg>
