<svg width="140" height="56" viewBox="0 0 140 56" fill="none" xmlns="http://www.w3.org/2000/svg">
<path fill-rule="evenodd" clip-rule="evenodd" d="M38.5729 16.75L27.0634 39.25H16.2527L21.0694 29.925H20.8533C16.8796 35.0835 10.9506 38.4794 2.50269 39.25V30.0541C2.50269 30.0541 7.907 29.7349 11.084 26.3947H2.50269V16.7502H12.1472V24.6826L12.3637 24.6818L16.3048 16.7502H23.5987V24.6323L23.8151 24.632L27.9041 16.75H38.5729ZM101.336 36.7665H104.442V18.9375H101.336V36.7665ZM84.2119 36.5844C84.8869 36.8651 85.5734 37.0054 86.2712 37.0054C87.4241 37.0054 88.4557 36.7248 89.366 36.1634C90.2761 35.6022 90.9816 34.8286 91.4822 33.8424C91.9829 32.8488 92.2331 31.7223 92.2331 30.4632C92.2331 29.2041 91.9753 28.0777 91.4595 27.084C90.9436 26.0904 90.2269 25.3205 89.309 24.7744C88.3913 24.2206 87.3482 23.9476 86.1801 23.9552C85.4369 23.9552 84.7239 24.0993 84.0411 24.3875C83.3585 24.6758 82.7896 25.0854 82.3345 25.6163C82.2994 25.6567 82.2653 25.6976 82.2321 25.7388V18.9489H79.1146V36.7666H82.2094L82.2031 35.1021C82.2831 35.2002 82.3688 35.2961 82.4596 35.3898C82.9526 35.8981 83.5368 36.2962 84.2119 36.5844ZM87.3976 33.7059C86.8894 34.0169 86.3091 34.1724 85.6567 34.1724C85.012 34.1724 84.4204 34.0131 83.8819 33.6946C83.3432 33.3683 82.9147 32.9247 82.5961 32.3633C82.2851 31.8021 82.1296 31.1648 82.1296 30.4518C82.1221 29.7388 82.2738 29.1017 82.5848 28.5404C82.9034 27.9715 83.3319 27.5316 83.8705 27.2206C84.409 26.902 85.0045 26.7465 85.6567 26.7541C86.3091 26.7465 86.8894 26.8982 87.3976 27.2092C87.9134 27.5126 88.3078 27.9488 88.5809 28.5176C88.8615 29.0789 89.0019 29.7237 89.0019 30.4518C89.0019 31.1801 88.8615 31.8248 88.5809 32.3861C88.3078 32.9474 87.9134 33.3873 87.3976 33.7059ZM43.0728 20.0184H46.6226L49.7981 31.6154L53.1763 20.0184H56.1345L59.7981 31.3827L62.8474 20.0184H66.1014L61.3 36.7665H58.2394L54.5139 25.6645L51.0941 36.7665H47.9994L43.0728 20.0184ZM71.344 37.0623C70.1075 37.0699 68.9925 36.7968 67.9988 36.2431C67.0127 35.6818 66.2353 34.9043 65.6663 33.9106C65.1051 32.917 64.8245 31.783 64.8245 30.5086C64.8245 29.2723 65.1127 28.1535 65.6892 27.1523C66.2656 26.151 67.0468 25.3697 68.033 24.8084C69.0191 24.2471 70.1188 23.9665 71.3325 23.9665C72.6978 23.9665 73.8925 24.2699 74.9165 24.8767C75.9481 25.4835 76.718 26.3444 77.2262 27.4595C77.742 28.5669 77.9278 29.8374 77.7837 31.271H68.0378C68.0651 31.8421 68.2076 32.3618 68.4653 32.8298C68.7536 33.3455 69.1556 33.7475 69.6713 34.0358C70.1872 34.324 70.7636 34.4681 71.4008 34.4681C71.8862 34.4605 72.3376 34.3771 72.7547 34.2179C73.172 34.051 73.5246 33.8273 73.8128 33.5465C74.1087 33.2659 74.3173 32.9474 74.4387 32.5909H77.6927C77.4955 33.4631 77.1011 34.2406 76.5095 34.9233C75.9177 35.5984 75.1745 36.1255 74.2793 36.5048C73.3843 36.884 72.4058 37.0699 71.344 37.0623ZM68.4767 28.1421C68.295 28.4591 68.169 28.8004 68.0988 29.1661H74.5592C74.5123 28.7041 74.3697 28.2832 74.1315 27.9032C73.8583 27.4557 73.4867 27.1105 73.0165 26.8678C72.5462 26.6175 72.0152 26.4924 71.4236 26.4924C70.794 26.4924 70.2213 26.6365 69.7055 26.9247C69.1897 27.2129 68.7801 27.6188 68.4767 28.1421ZM94.5204 24.2282C94.5204 23.2118 94.7517 22.3092 95.2144 21.5203C95.6771 20.7239 96.3257 20.1057 97.1601 19.6657C98.0019 19.2182 98.9843 18.9868 100.107 18.9717V21.7365C99.5834 21.7441 99.1359 21.854 98.7643 22.0664C98.4002 22.2712 98.1196 22.5708 97.9223 22.9653C97.7408 23.3284 97.6428 23.7494 97.6284 24.2282H100.039V26.8565H97.6266V36.7665H94.5204V26.8565H92.5179V24.2282H94.5204ZM112.338 37.0395C111.071 37.0395 109.937 36.7626 108.936 36.209C107.942 35.6476 107.161 34.874 106.592 33.8878C106.03 32.8942 105.75 31.7678 105.75 30.5086C105.75 29.242 106.03 28.1117 106.592 27.1181C107.161 26.1168 107.942 25.3393 108.936 24.7856C109.937 24.2319 111.071 23.955 112.338 23.955C113.612 23.955 114.75 24.2319 115.751 24.7856C116.76 25.3393 117.545 26.113 118.106 27.1067C118.667 28.1003 118.952 29.2343 118.959 30.5086C118.952 31.7678 118.667 32.8942 118.106 33.8878C117.552 34.874 116.771 35.6476 115.762 36.209C114.753 36.7626 113.612 37.0395 112.338 37.0395ZM112.338 34.1837C113.005 34.1837 113.597 34.032 114.112 33.7286C114.628 33.4176 115.026 32.9852 115.307 32.4315C115.588 31.8702 115.728 31.2292 115.728 30.5086C115.728 29.7805 115.588 29.1357 115.307 28.5744C115.026 28.0131 114.628 27.5808 114.112 27.2774C113.597 26.9664 113.005 26.8109 112.338 26.8109C111.678 26.8109 111.09 26.9664 110.574 27.2774C110.066 27.5808 109.671 28.0131 109.391 28.5744C109.11 29.1357 108.974 29.7805 108.981 30.5086C108.981 31.2292 109.121 31.8702 109.402 32.4315C109.69 32.9852 110.085 33.4176 110.585 33.7286C111.094 34.032 111.678 34.1837 112.338 34.1837ZM122.316 24.2282H118.857L122.6 36.7665H125.627L128.089 28.7583L130.746 36.7665H133.728L137.483 24.2282H134.354L132.224 32.0325L129.87 24.2282H126.844L124.502 32.2044L122.316 24.2282Z" fill="black"/>
<path d="M38.5729 16.75L27.0634 39.25H16.2527L21.0694 29.925H20.8533C16.8796 35.0835 10.9506 38.4794 2.50269 39.25V30.0541C2.50269 30.0541 7.907 29.7349 11.084 26.3947H2.50269V16.7502H12.1472V24.6826L12.3637 24.6818L16.3048 16.7502H23.5987V24.6323L23.8151 24.632L27.9041 16.75H38.5729ZM101.336 36.7665H104.442V18.9375H101.336V36.7665ZM84.2119 36.5844C84.8869 36.8651 85.5734 37.0054 86.2712 37.0054C87.4241 37.0054 88.4557 36.7248 89.366 36.1634C90.2761 35.6022 90.9816 34.8286 91.4822 33.8424C91.9829 32.8488 92.2331 31.7223 92.2331 30.4632C92.2331 29.2041 91.9753 28.0777 91.4595 27.084C90.9436 26.0904 90.2269 25.3205 89.309 24.7744C88.3913 24.2206 87.3482 23.9476 86.1801 23.9552C85.4369 23.9552 84.7239 24.0993 84.0411 24.3875C83.3585 24.6758 82.7896 25.0854 82.3345 25.6163C82.2994 25.6567 82.2653 25.6976 82.2321 25.7388V18.9489H79.1146V36.7666H82.2094L82.2031 35.1021C82.2831 35.2002 82.3688 35.2961 82.4596 35.3898C82.9526 35.8981 83.5368 36.2962 84.2119 36.5844ZM87.3976 33.7059C86.8894 34.0169 86.3091 34.1724 85.6567 34.1724C85.012 34.1724 84.4204 34.0131 83.8819 33.6946C83.3432 33.3683 82.9147 32.9247 82.5961 32.3633C82.2851 31.8021 82.1296 31.1648 82.1296 30.4518C82.1221 29.7388 82.2738 29.1017 82.5848 28.5404C82.9034 27.9715 83.3319 27.5316 83.8705 27.2206C84.409 26.902 85.0045 26.7465 85.6567 26.7541C86.3091 26.7465 86.8894 26.8982 87.3976 27.2092C87.9134 27.5126 88.3078 27.9488 88.5809 28.5176C88.8615 29.0789 89.0019 29.7237 89.0019 30.4518C89.0019 31.1801 88.8615 31.8248 88.5809 32.3861C88.3078 32.9474 87.9134 33.3873 87.3976 33.7059ZM43.0728 20.0184H46.6226L49.7981 31.6154L53.1763 20.0184H56.1345L59.7981 31.3827L62.8474 20.0184H66.1014L61.3 36.7665H58.2394L54.5139 25.6645L51.0941 36.7665H47.9994L43.0728 20.0184ZM71.344 37.0623C70.1075 37.0699 68.9925 36.7968 67.9988 36.2431C67.0127 35.6818 66.2353 34.9043 65.6663 33.9106C65.1051 32.917 64.8245 31.783 64.8245 30.5086C64.8245 29.2723 65.1127 28.1535 65.6892 27.1523C66.2656 26.151 67.0468 25.3697 68.033 24.8084C69.0191 24.2471 70.1188 23.9665 71.3325 23.9665C72.6978 23.9665 73.8925 24.2699 74.9165 24.8767C75.9481 25.4835 76.718 26.3444 77.2262 27.4595C77.742 28.5669 77.9278 29.8374 77.7837 31.271H68.0378C68.0651 31.8421 68.2076 32.3618 68.4653 32.8298C68.7536 33.3455 69.1556 33.7475 69.6713 34.0358C70.1872 34.324 70.7636 34.4681 71.4008 34.4681C71.8862 34.4605 72.3376 34.3771 72.7547 34.2179C73.172 34.051 73.5246 33.8273 73.8128 33.5465C74.1087 33.2659 74.3173 32.9474 74.4387 32.5909H77.6927C77.4955 33.4631 77.1011 34.2406 76.5095 34.9233C75.9177 35.5984 75.1745 36.1255 74.2793 36.5048C73.3843 36.884 72.4058 37.0699 71.344 37.0623ZM68.4767 28.1421C68.295 28.4591 68.169 28.8004 68.0988 29.1661H74.5592C74.5123 28.7041 74.3697 28.2832 74.1315 27.9032C73.8583 27.4557 73.4867 27.1105 73.0165 26.8678C72.5462 26.6175 72.0152 26.4924 71.4236 26.4924C70.794 26.4924 70.2213 26.6365 69.7055 26.9247C69.1897 27.2129 68.7801 27.6188 68.4767 28.1421ZM94.5204 24.2282C94.5204 23.2118 94.7517 22.3092 95.2144 21.5203C95.6771 20.7239 96.3257 20.1057 97.1601 19.6657C98.0019 19.2182 98.9843 18.9868 100.107 18.9717V21.7365C99.5834 21.7441 99.1359 21.854 98.7643 22.0664C98.4002 22.2712 98.1196 22.5708 97.9223 22.9653C97.7408 23.3284 97.6428 23.7494 97.6284 24.2282H100.039V26.8565H97.6266V36.7665H94.5204V26.8565H92.5179V24.2282H94.5204ZM112.338 37.0395C111.071 37.0395 109.937 36.7626 108.936 36.209C107.942 35.6476 107.161 34.874 106.592 33.8878C106.03 32.8942 105.75 31.7678 105.75 30.5086C105.75 29.242 106.03 28.1117 106.592 27.1181C107.161 26.1168 107.942 25.3393 108.936 24.7856C109.937 24.2319 111.071 23.955 112.338 23.955C113.612 23.955 114.75 24.2319 115.751 24.7856C116.76 25.3393 117.545 26.113 118.106 27.1067C118.667 28.1003 118.952 29.2343 118.959 30.5086C118.952 31.7678 118.667 32.8942 118.106 33.8878C117.552 34.874 116.771 35.6476 115.762 36.209C114.753 36.7626 113.612 37.0395 112.338 37.0395ZM112.338 34.1837C113.005 34.1837 113.597 34.032 114.112 33.7286C114.628 33.4176 115.026 32.9852 115.307 32.4315C115.588 31.8702 115.728 31.2292 115.728 30.5086C115.728 29.7805 115.588 29.1357 115.307 28.5744C115.026 28.0131 114.628 27.5808 114.112 27.2774C113.597 26.9664 113.005 26.8109 112.338 26.8109C111.678 26.8109 111.09 26.9664 110.574 27.2774C110.066 27.5808 109.671 28.0131 109.391 28.5744C109.11 29.1357 108.974 29.7805 108.981 30.5086C108.981 31.2292 109.121 31.8702 109.402 32.4315C109.69 32.9852 110.085 33.4176 110.585 33.7286C111.094 34.032 111.678 34.1837 112.338 34.1837ZM122.316 24.2282H118.857L122.6 36.7665H125.627L128.089 28.7583L130.746 36.7665H133.728L137.483 24.2282H134.354L132.224 32.0325L129.87 24.2282H126.844L124.502 32.2044L122.316 24.2282Z" fill="black"/>
<path fill-rule="evenodd" clip-rule="evenodd" d="M38.5729 16.75L27.0634 39.25H16.2527L21.0694 29.925H20.8533C16.8796 35.0835 10.9506 38.4794 2.50269 39.25V30.0541C2.50269 30.0541 7.907 29.7349 11.084 26.3947H2.50269V16.7502H12.1472V24.6826L12.3637 24.6818L16.3048 16.7502H23.5987V24.6323L23.8151 24.632L27.9041 16.75H38.5729ZM101.336 36.7665H104.442V18.9375H101.336V36.7665ZM84.2119 36.5844C84.8869 36.8651 85.5734 37.0054 86.2712 37.0054C87.4241 37.0054 88.4557 36.7248 89.366 36.1634C90.2761 35.6022 90.9816 34.8286 91.4822 33.8424C91.9829 32.8488 92.2331 31.7223 92.2331 30.4632C92.2331 29.2041 91.9753 28.0777 91.4595 27.084C90.9436 26.0904 90.2269 25.3205 89.309 24.7744C88.3913 24.2206 87.3482 23.9476 86.1801 23.9552C85.4369 23.9552 84.7239 24.0993 84.0411 24.3875C83.3585 24.6758 82.7896 25.0854 82.3345 25.6163C82.2994 25.6567 82.2653 25.6976 82.2321 25.7388V18.9489H79.1146V36.7666H82.2094L82.2031 35.1021C82.2831 35.2002 82.3688 35.2961 82.4596 35.3898C82.9526 35.8981 83.5368 36.2962 84.2119 36.5844ZM87.3976 33.7059C86.8894 34.0169 86.3091 34.1724 85.6567 34.1724C85.012 34.1724 84.4204 34.0131 83.8819 33.6946C83.3432 33.3683 82.9147 32.9247 82.5961 32.3633C82.2851 31.8021 82.1296 31.1648 82.1296 30.4518C82.1221 29.7388 82.2738 29.1017 82.5848 28.5404C82.9034 27.9715 83.3319 27.5316 83.8705 27.2206C84.409 26.902 85.0045 26.7465 85.6567 26.7541C86.3091 26.7465 86.8894 26.8982 87.3976 27.2092C87.9134 27.5126 88.3078 27.9488 88.5809 28.5176C88.8615 29.0789 89.0019 29.7237 89.0019 30.4518C89.0019 31.1801 88.8615 31.8248 88.5809 32.3861C88.3078 32.9474 87.9134 33.3873 87.3976 33.7059ZM43.0728 20.0184H46.6226L49.7981 31.6154L53.1763 20.0184H56.1345L59.7981 31.3827L62.8474 20.0184H66.1014L61.3 36.7665H58.2394L54.5139 25.6645L51.0941 36.7665H47.9994L43.0728 20.0184ZM71.344 37.0623C70.1075 37.0699 68.9925 36.7968 67.9988 36.2431C67.0127 35.6818 66.2353 34.9043 65.6663 33.9106C65.1051 32.917 64.8245 31.783 64.8245 30.5086C64.8245 29.2723 65.1127 28.1535 65.6892 27.1523C66.2656 26.151 67.0468 25.3697 68.033 24.8084C69.0191 24.2471 70.1188 23.9665 71.3325 23.9665C72.6978 23.9665 73.8925 24.2699 74.9165 24.8767C75.9481 25.4835 76.718 26.3444 77.2262 27.4595C77.742 28.5669 77.9278 29.8374 77.7837 31.271H68.0378C68.0651 31.8421 68.2076 32.3618 68.4653 32.8298C68.7536 33.3455 69.1556 33.7475 69.6713 34.0358C70.1872 34.324 70.7636 34.4681 71.4008 34.4681C71.8862 34.4605 72.3376 34.3771 72.7547 34.2179C73.172 34.051 73.5246 33.8273 73.8128 33.5465C74.1087 33.2659 74.3173 32.9474 74.4387 32.5909H77.6927C77.4955 33.4631 77.1011 34.2406 76.5095 34.9233C75.9177 35.5984 75.1745 36.1255 74.2793 36.5048C73.3843 36.884 72.4058 37.0699 71.344 37.0623ZM68.4767 28.1421C68.295 28.4591 68.169 28.8004 68.0988 29.1661H74.5592C74.5123 28.7041 74.3697 28.2832 74.1315 27.9032C73.8583 27.4557 73.4867 27.1105 73.0165 26.8678C72.5462 26.6175 72.0152 26.4924 71.4236 26.4924C70.794 26.4924 70.2213 26.6365 69.7055 26.9247C69.1897 27.2129 68.7801 27.6188 68.4767 28.1421ZM94.5204 24.2282C94.5204 23.2118 94.7517 22.3092 95.2144 21.5203C95.6771 20.7239 96.3257 20.1057 97.1601 19.6657C98.0019 19.2182 98.9843 18.9868 100.107 18.9717V21.7365C99.5834 21.7441 99.1359 21.854 98.7643 22.0664C98.4002 22.2712 98.1196 22.5708 97.9223 22.9653C97.7408 23.3284 97.6428 23.7494 97.6284 24.2282H100.039V26.8565H97.6266V36.7665H94.5204V26.8565H92.5179V24.2282H94.5204ZM112.338 37.0395C111.071 37.0395 109.937 36.7626 108.936 36.209C107.942 35.6476 107.161 34.874 106.592 33.8878C106.03 32.8942 105.75 31.7678 105.75 30.5086C105.75 29.242 106.03 28.1117 106.592 27.1181C107.161 26.1168 107.942 25.3393 108.936 24.7856C109.937 24.2319 111.071 23.955 112.338 23.955C113.612 23.955 114.75 24.2319 115.751 24.7856C116.76 25.3393 117.545 26.113 118.106 27.1067C118.667 28.1003 118.952 29.2343 118.959 30.5086C118.952 31.7678 118.667 32.8942 118.106 33.8878C117.552 34.874 116.771 35.6476 115.762 36.209C114.753 36.7626 113.612 37.0395 112.338 37.0395ZM112.338 34.1837C113.005 34.1837 113.597 34.032 114.112 33.7286C114.628 33.4176 115.026 32.9852 115.307 32.4315C115.588 31.8702 115.728 31.2292 115.728 30.5086C115.728 29.7805 115.588 29.1357 115.307 28.5744C115.026 28.0131 114.628 27.5808 114.112 27.2774C113.597 26.9664 113.005 26.8109 112.338 26.8109C111.678 26.8109 111.09 26.9664 110.574 27.2774C110.066 27.5808 109.671 28.0131 109.391 28.5744C109.11 29.1357 108.974 29.7805 108.981 30.5086C108.981 31.2292 109.121 31.8702 109.402 32.4315C109.69 32.9852 110.085 33.4176 110.585 33.7286C111.094 34.032 111.678 34.1837 112.338 34.1837ZM122.316 24.2282H118.857L122.6 36.7665H125.627L128.089 28.7583L130.746 36.7665H133.728L137.483 24.2282H134.354L132.224 32.0325L129.87 24.2282H126.844L124.502 32.2044L122.316 24.2282Z" fill="black"/>
<path d="M38.5729 16.75L27.0634 39.25H16.2527L21.0694 29.925H20.8533C16.8796 35.0835 10.9506 38.4794 2.50269 39.25V30.0541C2.50269 30.0541 7.907 29.7349 11.084 26.3947H2.50269V16.7502H12.1472V24.6826L12.3637 24.6818L16.3048 16.7502H23.5987V24.6323L23.8151 24.632L27.9041 16.75H38.5729ZM101.336 36.7665H104.442V18.9375H101.336V36.7665ZM84.2119 36.5844C84.8869 36.8651 85.5734 37.0054 86.2712 37.0054C87.4241 37.0054 88.4557 36.7248 89.366 36.1634C90.2761 35.6022 90.9816 34.8286 91.4822 33.8424C91.9829 32.8488 92.2331 31.7223 92.2331 30.4632C92.2331 29.2041 91.9753 28.0777 91.4595 27.084C90.9436 26.0904 90.2269 25.3205 89.309 24.7744C88.3913 24.2206 87.3482 23.9476 86.1801 23.9552C85.4369 23.9552 84.7239 24.0993 84.0411 24.3875C83.3585 24.6758 82.7896 25.0854 82.3345 25.6163C82.2994 25.6567 82.2653 25.6976 82.2321 25.7388V18.9489H79.1146V36.7666H82.2094L82.2031 35.1021C82.2831 35.2002 82.3688 35.2961 82.4596 35.3898C82.9526 35.8981 83.5368 36.2962 84.2119 36.5844ZM87.3976 33.7059C86.8894 34.0169 86.3091 34.1724 85.6567 34.1724C85.012 34.1724 84.4204 34.0131 83.8819 33.6946C83.3432 33.3683 82.9147 32.9247 82.5961 32.3633C82.2851 31.8021 82.1296 31.1648 82.1296 30.4518C82.1221 29.7388 82.2738 29.1017 82.5848 28.5404C82.9034 27.9715 83.3319 27.5316 83.8705 27.2206C84.409 26.902 85.0045 26.7465 85.6567 26.7541C86.3091 26.7465 86.8894 26.8982 87.3976 27.2092C87.9134 27.5126 88.3078 27.9488 88.5809 28.5176C88.8615 29.0789 89.0019 29.7237 89.0019 30.4518C89.0019 31.1801 88.8615 31.8248 88.5809 32.3861C88.3078 32.9474 87.9134 33.3873 87.3976 33.7059ZM43.0728 20.0184H46.6226L49.7981 31.6154L53.1763 20.0184H56.1345L59.7981 31.3827L62.8474 20.0184H66.1014L61.3 36.7665H58.2394L54.5139 25.6645L51.0941 36.7665H47.9994L43.0728 20.0184ZM71.344 37.0623C70.1075 37.0699 68.9925 36.7968 67.9988 36.2431C67.0127 35.6818 66.2353 34.9043 65.6663 33.9106C65.1051 32.917 64.8245 31.783 64.8245 30.5086C64.8245 29.2723 65.1127 28.1535 65.6892 27.1523C66.2656 26.151 67.0468 25.3697 68.033 24.8084C69.0191 24.2471 70.1188 23.9665 71.3325 23.9665C72.6978 23.9665 73.8925 24.2699 74.9165 24.8767C75.9481 25.4835 76.718 26.3444 77.2262 27.4595C77.742 28.5669 77.9278 29.8374 77.7837 31.271H68.0378C68.0651 31.8421 68.2076 32.3618 68.4653 32.8298C68.7536 33.3455 69.1556 33.7475 69.6713 34.0358C70.1872 34.324 70.7636 34.4681 71.4008 34.4681C71.8862 34.4605 72.3376 34.3771 72.7547 34.2179C73.172 34.051 73.5246 33.8273 73.8128 33.5465C74.1087 33.2659 74.3173 32.9474 74.4387 32.5909H77.6927C77.4955 33.4631 77.1011 34.2406 76.5095 34.9233C75.9177 35.5984 75.1745 36.1255 74.2793 36.5048C73.3843 36.884 72.4058 37.0699 71.344 37.0623ZM68.4767 28.1421C68.295 28.4591 68.169 28.8004 68.0988 29.1661H74.5592C74.5123 28.7041 74.3697 28.2832 74.1315 27.9032C73.8583 27.4557 73.4867 27.1105 73.0165 26.8678C72.5462 26.6175 72.0152 26.4924 71.4236 26.4924C70.794 26.4924 70.2213 26.6365 69.7055 26.9247C69.1897 27.2129 68.7801 27.6188 68.4767 28.1421ZM94.5204 24.2282C94.5204 23.2118 94.7517 22.3092 95.2144 21.5203C95.6771 20.7239 96.3257 20.1057 97.1601 19.6657C98.0019 19.2182 98.9843 18.9868 100.107 18.9717V21.7365C99.5834 21.7441 99.1359 21.854 98.7643 22.0664C98.4002 22.2712 98.1196 22.5708 97.9223 22.9653C97.7408 23.3284 97.6428 23.7494 97.6284 24.2282H100.039V26.8565H97.6266V36.7665H94.5204V26.8565H92.5179V24.2282H94.5204ZM112.338 37.0395C111.071 37.0395 109.937 36.7626 108.936 36.209C107.942 35.6476 107.161 34.874 106.592 33.8878C106.03 32.8942 105.75 31.7678 105.75 30.5086C105.75 29.242 106.03 28.1117 106.592 27.1181C107.161 26.1168 107.942 25.3393 108.936 24.7856C109.937 24.2319 111.071 23.955 112.338 23.955C113.612 23.955 114.75 24.2319 115.751 24.7856C116.76 25.3393 117.545 26.113 118.106 27.1067C118.667 28.1003 118.952 29.2343 118.959 30.5086C118.952 31.7678 118.667 32.8942 118.106 33.8878C117.552 34.874 116.771 35.6476 115.762 36.209C114.753 36.7626 113.612 37.0395 112.338 37.0395ZM112.338 34.1837C113.005 34.1837 113.597 34.032 114.112 33.7286C114.628 33.4176 115.026 32.9852 115.307 32.4315C115.588 31.8702 115.728 31.2292 115.728 30.5086C115.728 29.7805 115.588 29.1357 115.307 28.5744C115.026 28.0131 114.628 27.5808 114.112 27.2774C113.597 26.9664 113.005 26.8109 112.338 26.8109C111.678 26.8109 111.09 26.9664 110.574 27.2774C110.066 27.5808 109.671 28.0131 109.391 28.5744C109.11 29.1357 108.974 29.7805 108.981 30.5086C108.981 31.2292 109.121 31.8702 109.402 32.4315C109.69 32.9852 110.085 33.4176 110.585 33.7286C111.094 34.032 111.678 34.1837 112.338 34.1837ZM122.316 24.2282H118.857L122.6 36.7665H125.627L128.089 28.7583L130.746 36.7665H133.728L137.483 24.2282H134.354L132.224 32.0325L129.87 24.2282H126.844L124.502 32.2044L122.316 24.2282Z" fill="black"/>
<path fill-rule="evenodd" clip-rule="evenodd" d="M38.5729 16.75L27.0634 39.25H16.2527L21.0694 29.925H20.8533C16.8796 35.0835 10.9506 38.4794 2.50269 39.25V30.0541C2.50269 30.0541 7.907 29.7349 11.084 26.3947H2.50269V16.7502H12.1472V24.6826L12.3637 24.6818L16.3048 16.7502H23.5987V24.6323L23.8151 24.632L27.9041 16.75H38.5729ZM101.336 36.7665H104.442V18.9375H101.336V36.7665ZM84.2119 36.5844C84.8869 36.8651 85.5734 37.0054 86.2712 37.0054C87.4241 37.0054 88.4557 36.7248 89.366 36.1634C90.2761 35.6022 90.9816 34.8286 91.4822 33.8424C91.9829 32.8488 92.2331 31.7223 92.2331 30.4632C92.2331 29.2041 91.9753 28.0777 91.4595 27.084C90.9436 26.0904 90.2269 25.3205 89.309 24.7744C88.3913 24.2206 87.3482 23.9476 86.1801 23.9552C85.4369 23.9552 84.7239 24.0993 84.0411 24.3875C83.3585 24.6758 82.7896 25.0854 82.3345 25.6163C82.2994 25.6567 82.2653 25.6976 82.2321 25.7388V18.9489H79.1146V36.7666H82.2094L82.2031 35.1021C82.2831 35.2002 82.3688 35.2961 82.4596 35.3898C82.9526 35.8981 83.5368 36.2962 84.2119 36.5844ZM87.3976 33.7059C86.8894 34.0169 86.3091 34.1724 85.6567 34.1724C85.012 34.1724 84.4204 34.0131 83.8819 33.6946C83.3432 33.3683 82.9147 32.9247 82.5961 32.3633C82.2851 31.8021 82.1296 31.1648 82.1296 30.4518C82.1221 29.7388 82.2738 29.1017 82.5848 28.5404C82.9034 27.9715 83.3319 27.5316 83.8705 27.2206C84.409 26.902 85.0045 26.7465 85.6567 26.7541C86.3091 26.7465 86.8894 26.8982 87.3976 27.2092C87.9134 27.5126 88.3078 27.9488 88.5809 28.5176C88.8615 29.0789 89.0019 29.7237 89.0019 30.4518C89.0019 31.1801 88.8615 31.8248 88.5809 32.3861C88.3078 32.9474 87.9134 33.3873 87.3976 33.7059ZM43.0728 20.0184H46.6226L49.7981 31.6154L53.1763 20.0184H56.1345L59.7981 31.3827L62.8474 20.0184H66.1014L61.3 36.7665H58.2394L54.5139 25.6645L51.0941 36.7665H47.9994L43.0728 20.0184ZM71.344 37.0623C70.1075 37.0699 68.9925 36.7968 67.9988 36.2431C67.0127 35.6818 66.2353 34.9043 65.6663 33.9106C65.1051 32.917 64.8245 31.783 64.8245 30.5086C64.8245 29.2723 65.1127 28.1535 65.6892 27.1523C66.2656 26.151 67.0468 25.3697 68.033 24.8084C69.0191 24.2471 70.1188 23.9665 71.3325 23.9665C72.6978 23.9665 73.8925 24.2699 74.9165 24.8767C75.9481 25.4835 76.718 26.3444 77.2262 27.4595C77.742 28.5669 77.9278 29.8374 77.7837 31.271H68.0378C68.0651 31.8421 68.2076 32.3618 68.4653 32.8298C68.7536 33.3455 69.1556 33.7475 69.6713 34.0358C70.1872 34.324 70.7636 34.4681 71.4008 34.4681C71.8862 34.4605 72.3376 34.3771 72.7547 34.2179C73.172 34.051 73.5246 33.8273 73.8128 33.5465C74.1087 33.2659 74.3173 32.9474 74.4387 32.5909H77.6927C77.4955 33.4631 77.1011 34.2406 76.5095 34.9233C75.9177 35.5984 75.1745 36.1255 74.2793 36.5048C73.3843 36.884 72.4058 37.0699 71.344 37.0623ZM68.4767 28.1421C68.295 28.4591 68.169 28.8004 68.0988 29.1661H74.5592C74.5123 28.7041 74.3697 28.2832 74.1315 27.9032C73.8583 27.4557 73.4867 27.1105 73.0165 26.8678C72.5462 26.6175 72.0152 26.4924 71.4236 26.4924C70.794 26.4924 70.2213 26.6365 69.7055 26.9247C69.1897 27.2129 68.7801 27.6188 68.4767 28.1421ZM94.5204 24.2282C94.5204 23.2118 94.7517 22.3092 95.2144 21.5203C95.6771 20.7239 96.3257 20.1057 97.1601 19.6657C98.0019 19.2182 98.9843 18.9868 100.107 18.9717V21.7365C99.5834 21.7441 99.1359 21.854 98.7643 22.0664C98.4002 22.2712 98.1196 22.5708 97.9223 22.9653C97.7408 23.3284 97.6428 23.7494 97.6284 24.2282H100.039V26.8565H97.6266V36.7665H94.5204V26.8565H92.5179V24.2282H94.5204ZM112.338 37.0395C111.071 37.0395 109.937 36.7626 108.936 36.209C107.942 35.6476 107.161 34.874 106.592 33.8878C106.03 32.8942 105.75 31.7678 105.75 30.5086C105.75 29.242 106.03 28.1117 106.592 27.1181C107.161 26.1168 107.942 25.3393 108.936 24.7856C109.937 24.2319 111.071 23.955 112.338 23.955C113.612 23.955 114.75 24.2319 115.751 24.7856C116.76 25.3393 117.545 26.113 118.106 27.1067C118.667 28.1003 118.952 29.2343 118.959 30.5086C118.952 31.7678 118.667 32.8942 118.106 33.8878C117.552 34.874 116.771 35.6476 115.762 36.209C114.753 36.7626 113.612 37.0395 112.338 37.0395ZM112.338 34.1837C113.005 34.1837 113.597 34.032 114.112 33.7286C114.628 33.4176 115.026 32.9852 115.307 32.4315C115.588 31.8702 115.728 31.2292 115.728 30.5086C115.728 29.7805 115.588 29.1357 115.307 28.5744C115.026 28.0131 114.628 27.5808 114.112 27.2774C113.597 26.9664 113.005 26.8109 112.338 26.8109C111.678 26.8109 111.09 26.9664 110.574 27.2774C110.066 27.5808 109.671 28.0131 109.391 28.5744C109.11 29.1357 108.974 29.7805 108.981 30.5086C108.981 31.2292 109.121 31.8702 109.402 32.4315C109.69 32.9852 110.085 33.4176 110.585 33.7286C111.094 34.032 111.678 34.1837 112.338 34.1837ZM122.316 24.2282H118.857L122.6 36.7665H125.627L128.089 28.7583L130.746 36.7665H133.728L137.483 24.2282H134.354L132.224 32.0325L129.87 24.2282H126.844L124.502 32.2044L122.316 24.2282Z" fill="black"/>
<path d="M38.5729 16.75L27.0634 39.25H16.2527L21.0694 29.925H20.8533C16.8796 35.0835 10.9506 38.4794 2.50269 39.25V30.0541C2.50269 30.0541 7.907 29.7349 11.084 26.3947H2.50269V16.7502H12.1472V24.6826L12.3637 24.6818L16.3048 16.7502H23.5987V24.6323L23.8151 24.632L27.9041 16.75H38.5729ZM101.336 36.7665H104.442V18.9375H101.336V36.7665ZM84.2119 36.5844C84.8869 36.8651 85.5734 37.0054 86.2712 37.0054C87.4241 37.0054 88.4557 36.7248 89.366 36.1634C90.2761 35.6022 90.9816 34.8286 91.4822 33.8424C91.9829 32.8488 92.2331 31.7223 92.2331 30.4632C92.2331 29.2041 91.9753 28.0777 91.4595 27.084C90.9436 26.0904 90.2269 25.3205 89.309 24.7744C88.3913 24.2206 87.3482 23.9476 86.1801 23.9552C85.4369 23.9552 84.7239 24.0993 84.0411 24.3875C83.3585 24.6758 82.7896 25.0854 82.3345 25.6163C82.2994 25.6567 82.2653 25.6976 82.2321 25.7388V18.9489H79.1146V36.7666H82.2094L82.2031 35.1021C82.2831 35.2002 82.3688 35.2961 82.4596 35.3898C82.9526 35.8981 83.5368 36.2962 84.2119 36.5844ZM87.3976 33.7059C86.8894 34.0169 86.3091 34.1724 85.6567 34.1724C85.012 34.1724 84.4204 34.0131 83.8819 33.6946C83.3432 33.3683 82.9147 32.9247 82.5961 32.3633C82.2851 31.8021 82.1296 31.1648 82.1296 30.4518C82.1221 29.7388 82.2738 29.1017 82.5848 28.5404C82.9034 27.9715 83.3319 27.5316 83.8705 27.2206C84.409 26.902 85.0045 26.7465 85.6567 26.7541C86.3091 26.7465 86.8894 26.8982 87.3976 27.2092C87.9134 27.5126 88.3078 27.9488 88.5809 28.5176C88.8615 29.0789 89.0019 29.7237 89.0019 30.4518C89.0019 31.1801 88.8615 31.8248 88.5809 32.3861C88.3078 32.9474 87.9134 33.3873 87.3976 33.7059ZM43.0728 20.0184H46.6226L49.7981 31.6154L53.1763 20.0184H56.1345L59.7981 31.3827L62.8474 20.0184H66.1014L61.3 36.7665H58.2394L54.5139 25.6645L51.0941 36.7665H47.9994L43.0728 20.0184ZM71.344 37.0623C70.1075 37.0699 68.9925 36.7968 67.9988 36.2431C67.0127 35.6818 66.2353 34.9043 65.6663 33.9106C65.1051 32.917 64.8245 31.783 64.8245 30.5086C64.8245 29.2723 65.1127 28.1535 65.6892 27.1523C66.2656 26.151 67.0468 25.3697 68.033 24.8084C69.0191 24.2471 70.1188 23.9665 71.3325 23.9665C72.6978 23.9665 73.8925 24.2699 74.9165 24.8767C75.9481 25.4835 76.718 26.3444 77.2262 27.4595C77.742 28.5669 77.9278 29.8374 77.7837 31.271H68.0378C68.0651 31.8421 68.2076 32.3618 68.4653 32.8298C68.7536 33.3455 69.1556 33.7475 69.6713 34.0358C70.1872 34.324 70.7636 34.4681 71.4008 34.4681C71.8862 34.4605 72.3376 34.3771 72.7547 34.2179C73.172 34.051 73.5246 33.8273 73.8128 33.5465C74.1087 33.2659 74.3173 32.9474 74.4387 32.5909H77.6927C77.4955 33.4631 77.1011 34.2406 76.5095 34.9233C75.9177 35.5984 75.1745 36.1255 74.2793 36.5048C73.3843 36.884 72.4058 37.0699 71.344 37.0623ZM68.4767 28.1421C68.295 28.4591 68.169 28.8004 68.0988 29.1661H74.5592C74.5123 28.7041 74.3697 28.2832 74.1315 27.9032C73.8583 27.4557 73.4867 27.1105 73.0165 26.8678C72.5462 26.6175 72.0152 26.4924 71.4236 26.4924C70.794 26.4924 70.2213 26.6365 69.7055 26.9247C69.1897 27.2129 68.7801 27.6188 68.4767 28.1421ZM94.5204 24.2282C94.5204 23.2118 94.7517 22.3092 95.2144 21.5203C95.6771 20.7239 96.3257 20.1057 97.1601 19.6657C98.0019 19.2182 98.9843 18.9868 100.107 18.9717V21.7365C99.5834 21.7441 99.1359 21.854 98.7643 22.0664C98.4002 22.2712 98.1196 22.5708 97.9223 22.9653C97.7408 23.3284 97.6428 23.7494 97.6284 24.2282H100.039V26.8565H97.6266V36.7665H94.5204V26.8565H92.5179V24.2282H94.5204ZM112.338 37.0395C111.071 37.0395 109.937 36.7626 108.936 36.209C107.942 35.6476 107.161 34.874 106.592 33.8878C106.03 32.8942 105.75 31.7678 105.75 30.5086C105.75 29.242 106.03 28.1117 106.592 27.1181C107.161 26.1168 107.942 25.3393 108.936 24.7856C109.937 24.2319 111.071 23.955 112.338 23.955C113.612 23.955 114.75 24.2319 115.751 24.7856C116.76 25.3393 117.545 26.113 118.106 27.1067C118.667 28.1003 118.952 29.2343 118.959 30.5086C118.952 31.7678 118.667 32.8942 118.106 33.8878C117.552 34.874 116.771 35.6476 115.762 36.209C114.753 36.7626 113.612 37.0395 112.338 37.0395ZM112.338 34.1837C113.005 34.1837 113.597 34.032 114.112 33.7286C114.628 33.4176 115.026 32.9852 115.307 32.4315C115.588 31.8702 115.728 31.2292 115.728 30.5086C115.728 29.7805 115.588 29.1357 115.307 28.5744C115.026 28.0131 114.628 27.5808 114.112 27.2774C113.597 26.9664 113.005 26.8109 112.338 26.8109C111.678 26.8109 111.09 26.9664 110.574 27.2774C110.066 27.5808 109.671 28.0131 109.391 28.5744C109.11 29.1357 108.974 29.7805 108.981 30.5086C108.981 31.2292 109.121 31.8702 109.402 32.4315C109.69 32.9852 110.085 33.4176 110.585 33.7286C111.094 34.032 111.678 34.1837 112.338 34.1837ZM122.316 24.2282H118.857L122.6 36.7665H125.627L128.089 28.7583L130.746 36.7665H133.728L137.483 24.2282H134.354L132.224 32.0325L129.87 24.2282H126.844L124.502 32.2044L122.316 24.2282Z" fill="black"/>
<path fill-rule="evenodd" clip-rule="evenodd" d="M38.5729 16.75L27.0634 39.25H16.2527L21.0694 29.925H20.8533C16.8796 35.0835 10.9506 38.4794 2.50269 39.25V30.0541C2.50269 30.0541 7.907 29.7349 11.084 26.3947H2.50269V16.7502H12.1472V24.6826L12.3637 24.6818L16.3048 16.7502H23.5987V24.6323L23.8151 24.632L27.9041 16.75H38.5729ZM101.336 36.7665H104.442V18.9375H101.336V36.7665ZM84.2119 36.5844C84.8869 36.8651 85.5734 37.0054 86.2712 37.0054C87.4241 37.0054 88.4557 36.7248 89.366 36.1634C90.2761 35.6022 90.9816 34.8286 91.4822 33.8424C91.9829 32.8488 92.2331 31.7223 92.2331 30.4632C92.2331 29.2041 91.9753 28.0777 91.4595 27.084C90.9436 26.0904 90.2269 25.3205 89.309 24.7744C88.3913 24.2206 87.3482 23.9476 86.1801 23.9552C85.4369 23.9552 84.7239 24.0993 84.0411 24.3875C83.3585 24.6758 82.7896 25.0854 82.3345 25.6163C82.2994 25.6567 82.2653 25.6976 82.2321 25.7388V18.9489H79.1146V36.7666H82.2094L82.2031 35.1021C82.2831 35.2002 82.3688 35.2961 82.4596 35.3898C82.9526 35.8981 83.5368 36.2962 84.2119 36.5844ZM87.3976 33.7059C86.8894 34.0169 86.3091 34.1724 85.6567 34.1724C85.012 34.1724 84.4204 34.0131 83.8819 33.6946C83.3432 33.3683 82.9147 32.9247 82.5961 32.3633C82.2851 31.8021 82.1296 31.1648 82.1296 30.4518C82.1221 29.7388 82.2738 29.1017 82.5848 28.5404C82.9034 27.9715 83.3319 27.5316 83.8705 27.2206C84.409 26.902 85.0045 26.7465 85.6567 26.7541C86.3091 26.7465 86.8894 26.8982 87.3976 27.2092C87.9134 27.5126 88.3078 27.9488 88.5809 28.5176C88.8615 29.0789 89.0019 29.7237 89.0019 30.4518C89.0019 31.1801 88.8615 31.8248 88.5809 32.3861C88.3078 32.9474 87.9134 33.3873 87.3976 33.7059ZM43.0728 20.0184H46.6226L49.7981 31.6154L53.1763 20.0184H56.1345L59.7981 31.3827L62.8474 20.0184H66.1014L61.3 36.7665H58.2394L54.5139 25.6645L51.0941 36.7665H47.9994L43.0728 20.0184ZM71.344 37.0623C70.1075 37.0699 68.9925 36.7968 67.9988 36.2431C67.0127 35.6818 66.2353 34.9043 65.6663 33.9106C65.1051 32.917 64.8245 31.783 64.8245 30.5086C64.8245 29.2723 65.1127 28.1535 65.6892 27.1523C66.2656 26.151 67.0468 25.3697 68.033 24.8084C69.0191 24.2471 70.1188 23.9665 71.3325 23.9665C72.6978 23.9665 73.8925 24.2699 74.9165 24.8767C75.9481 25.4835 76.718 26.3444 77.2262 27.4595C77.742 28.5669 77.9278 29.8374 77.7837 31.271H68.0378C68.0651 31.8421 68.2076 32.3618 68.4653 32.8298C68.7536 33.3455 69.1556 33.7475 69.6713 34.0358C70.1872 34.324 70.7636 34.4681 71.4008 34.4681C71.8862 34.4605 72.3376 34.3771 72.7547 34.2179C73.172 34.051 73.5246 33.8273 73.8128 33.5465C74.1087 33.2659 74.3173 32.9474 74.4387 32.5909H77.6927C77.4955 33.4631 77.1011 34.2406 76.5095 34.9233C75.9177 35.5984 75.1745 36.1255 74.2793 36.5048C73.3843 36.884 72.4058 37.0699 71.344 37.0623ZM68.4767 28.1421C68.295 28.4591 68.169 28.8004 68.0988 29.1661H74.5592C74.5123 28.7041 74.3697 28.2832 74.1315 27.9032C73.8583 27.4557 73.4867 27.1105 73.0165 26.8678C72.5462 26.6175 72.0152 26.4924 71.4236 26.4924C70.794 26.4924 70.2213 26.6365 69.7055 26.9247C69.1897 27.2129 68.7801 27.6188 68.4767 28.1421ZM94.5204 24.2282C94.5204 23.2118 94.7517 22.3092 95.2144 21.5203C95.6771 20.7239 96.3257 20.1057 97.1601 19.6657C98.0019 19.2182 98.9843 18.9868 100.107 18.9717V21.7365C99.5834 21.7441 99.1359 21.854 98.7643 22.0664C98.4002 22.2712 98.1196 22.5708 97.9223 22.9653C97.7408 23.3284 97.6428 23.7494 97.6284 24.2282H100.039V26.8565H97.6266V36.7665H94.5204V26.8565H92.5179V24.2282H94.5204ZM112.338 37.0395C111.071 37.0395 109.937 36.7626 108.936 36.209C107.942 35.6476 107.161 34.874 106.592 33.8878C106.03 32.8942 105.75 31.7678 105.75 30.5086C105.75 29.242 106.03 28.1117 106.592 27.1181C107.161 26.1168 107.942 25.3393 108.936 24.7856C109.937 24.2319 111.071 23.955 112.338 23.955C113.612 23.955 114.75 24.2319 115.751 24.7856C116.76 25.3393 117.545 26.113 118.106 27.1067C118.667 28.1003 118.952 29.2343 118.959 30.5086C118.952 31.7678 118.667 32.8942 118.106 33.8878C117.552 34.874 116.771 35.6476 115.762 36.209C114.753 36.7626 113.612 37.0395 112.338 37.0395ZM112.338 34.1837C113.005 34.1837 113.597 34.032 114.112 33.7286C114.628 33.4176 115.026 32.9852 115.307 32.4315C115.588 31.8702 115.728 31.2292 115.728 30.5086C115.728 29.7805 115.588 29.1357 115.307 28.5744C115.026 28.0131 114.628 27.5808 114.112 27.2774C113.597 26.9664 113.005 26.8109 112.338 26.8109C111.678 26.8109 111.09 26.9664 110.574 27.2774C110.066 27.5808 109.671 28.0131 109.391 28.5744C109.11 29.1357 108.974 29.7805 108.981 30.5086C108.981 31.2292 109.121 31.8702 109.402 32.4315C109.69 32.9852 110.085 33.4176 110.585 33.7286C111.094 34.032 111.678 34.1837 112.338 34.1837ZM122.316 24.2282H118.857L122.6 36.7665H125.627L128.089 28.7583L130.746 36.7665H133.728L137.483 24.2282H134.354L132.224 32.0325L129.87 24.2282H126.844L124.502 32.2044L122.316 24.2282Z" fill="black"/>
<path d="M38.5729 16.75L27.0634 39.25H16.2527L21.0694 29.925H20.8533C16.8796 35.0835 10.9506 38.4794 2.50269 39.25V30.0541C2.50269 30.0541 7.907 29.7349 11.084 26.3947H2.50269V16.7502H12.1472V24.6826L12.3637 24.6818L16.3048 16.7502H23.5987V24.6323L23.8151 24.632L27.9041 16.75H38.5729ZM101.336 36.7665H104.442V18.9375H101.336V36.7665ZM84.2119 36.5844C84.8869 36.8651 85.5734 37.0054 86.2712 37.0054C87.4241 37.0054 88.4557 36.7248 89.366 36.1634C90.2761 35.6022 90.9816 34.8286 91.4822 33.8424C91.9829 32.8488 92.2331 31.7223 92.2331 30.4632C92.2331 29.2041 91.9753 28.0777 91.4595 27.084C90.9436 26.0904 90.2269 25.3205 89.309 24.7744C88.3913 24.2206 87.3482 23.9476 86.1801 23.9552C85.4369 23.9552 84.7239 24.0993 84.0411 24.3875C83.3585 24.6758 82.7896 25.0854 82.3345 25.6163C82.2994 25.6567 82.2653 25.6976 82.2321 25.7388V18.9489H79.1146V36.7666H82.2094L82.2031 35.1021C82.2831 35.2002 82.3688 35.2961 82.4596 35.3898C82.9526 35.8981 83.5368 36.2962 84.2119 36.5844ZM87.3976 33.7059C86.8894 34.0169 86.3091 34.1724 85.6567 34.1724C85.012 34.1724 84.4204 34.0131 83.8819 33.6946C83.3432 33.3683 82.9147 32.9247 82.5961 32.3633C82.2851 31.8021 82.1296 31.1648 82.1296 30.4518C82.1221 29.7388 82.2738 29.1017 82.5848 28.5404C82.9034 27.9715 83.3319 27.5316 83.8705 27.2206C84.409 26.902 85.0045 26.7465 85.6567 26.7541C86.3091 26.7465 86.8894 26.8982 87.3976 27.2092C87.9134 27.5126 88.3078 27.9488 88.5809 28.5176C88.8615 29.0789 89.0019 29.7237 89.0019 30.4518C89.0019 31.1801 88.8615 31.8248 88.5809 32.3861C88.3078 32.9474 87.9134 33.3873 87.3976 33.7059ZM43.0728 20.0184H46.6226L49.7981 31.6154L53.1763 20.0184H56.1345L59.7981 31.3827L62.8474 20.0184H66.1014L61.3 36.7665H58.2394L54.5139 25.6645L51.0941 36.7665H47.9994L43.0728 20.0184ZM71.344 37.0623C70.1075 37.0699 68.9925 36.7968 67.9988 36.2431C67.0127 35.6818 66.2353 34.9043 65.6663 33.9106C65.1051 32.917 64.8245 31.783 64.8245 30.5086C64.8245 29.2723 65.1127 28.1535 65.6892 27.1523C66.2656 26.151 67.0468 25.3697 68.033 24.8084C69.0191 24.2471 70.1188 23.9665 71.3325 23.9665C72.6978 23.9665 73.8925 24.2699 74.9165 24.8767C75.9481 25.4835 76.718 26.3444 77.2262 27.4595C77.742 28.5669 77.9278 29.8374 77.7837 31.271H68.0378C68.0651 31.8421 68.2076 32.3618 68.4653 32.8298C68.7536 33.3455 69.1556 33.7475 69.6713 34.0358C70.1872 34.324 70.7636 34.4681 71.4008 34.4681C71.8862 34.4605 72.3376 34.3771 72.7547 34.2179C73.172 34.051 73.5246 33.8273 73.8128 33.5465C74.1087 33.2659 74.3173 32.9474 74.4387 32.5909H77.6927C77.4955 33.4631 77.1011 34.2406 76.5095 34.9233C75.9177 35.5984 75.1745 36.1255 74.2793 36.5048C73.3843 36.884 72.4058 37.0699 71.344 37.0623ZM68.4767 28.1421C68.295 28.4591 68.169 28.8004 68.0988 29.1661H74.5592C74.5123 28.7041 74.3697 28.2832 74.1315 27.9032C73.8583 27.4557 73.4867 27.1105 73.0165 26.8678C72.5462 26.6175 72.0152 26.4924 71.4236 26.4924C70.794 26.4924 70.2213 26.6365 69.7055 26.9247C69.1897 27.2129 68.7801 27.6188 68.4767 28.1421ZM94.5204 24.2282C94.5204 23.2118 94.7517 22.3092 95.2144 21.5203C95.6771 20.7239 96.3257 20.1057 97.1601 19.6657C98.0019 19.2182 98.9843 18.9868 100.107 18.9717V21.7365C99.5834 21.7441 99.1359 21.854 98.7643 22.0664C98.4002 22.2712 98.1196 22.5708 97.9223 22.9653C97.7408 23.3284 97.6428 23.7494 97.6284 24.2282H100.039V26.8565H97.6266V36.7665H94.5204V26.8565H92.5179V24.2282H94.5204ZM112.338 37.0395C111.071 37.0395 109.937 36.7626 108.936 36.209C107.942 35.6476 107.161 34.874 106.592 33.8878C106.03 32.8942 105.75 31.7678 105.75 30.5086C105.75 29.242 106.03 28.1117 106.592 27.1181C107.161 26.1168 107.942 25.3393 108.936 24.7856C109.937 24.2319 111.071 23.955 112.338 23.955C113.612 23.955 114.75 24.2319 115.751 24.7856C116.76 25.3393 117.545 26.113 118.106 27.1067C118.667 28.1003 118.952 29.2343 118.959 30.5086C118.952 31.7678 118.667 32.8942 118.106 33.8878C117.552 34.874 116.771 35.6476 115.762 36.209C114.753 36.7626 113.612 37.0395 112.338 37.0395ZM112.338 34.1837C113.005 34.1837 113.597 34.032 114.112 33.7286C114.628 33.4176 115.026 32.9852 115.307 32.4315C115.588 31.8702 115.728 31.2292 115.728 30.5086C115.728 29.7805 115.588 29.1357 115.307 28.5744C115.026 28.0131 114.628 27.5808 114.112 27.2774C113.597 26.9664 113.005 26.8109 112.338 26.8109C111.678 26.8109 111.09 26.9664 110.574 27.2774C110.066 27.5808 109.671 28.0131 109.391 28.5744C109.11 29.1357 108.974 29.7805 108.981 30.5086C108.981 31.2292 109.121 31.8702 109.402 32.4315C109.69 32.9852 110.085 33.4176 110.585 33.7286C111.094 34.032 111.678 34.1837 112.338 34.1837ZM122.316 24.2282H118.857L122.6 36.7665H125.627L128.089 28.7583L130.746 36.7665H133.728L137.483 24.2282H134.354L132.224 32.0325L129.87 24.2282H126.844L124.502 32.2044L122.316 24.2282Z" fill="black"/>
</svg>
