<svg width="140" height="56" viewBox="0 0 140 56" fill="none" xmlns="http://www.w3.org/2000/svg">
<path fill-rule="evenodd" clip-rule="evenodd" d="M38.5716 16.75L27.0621 39.25H16.2513L21.0681 29.925H20.852C16.8782 35.0835 10.9492 38.4794 2.50134 39.25V30.0541C2.50134 30.0541 7.90566 29.7349 11.0827 26.3947H2.50134V16.7502H12.1459V24.6826L12.3623 24.6818L16.3035 16.7502H23.5973V24.6323L23.8137 24.632L27.9027 16.75H38.5716ZM101.334 36.7665H104.44V18.9375H101.334V36.7665ZM84.2105 36.5844C84.8855 36.8651 85.572 37.0054 86.2699 37.0054C87.4228 37.0054 88.4544 36.7248 89.3647 36.1634C90.2748 35.6022 90.9803 34.8286 91.4809 33.8424C91.9815 32.8488 92.2318 31.7223 92.2318 30.4632C92.2318 29.2041 91.9739 28.0777 91.4582 27.084C90.9423 26.0904 90.2255 25.3205 89.3077 24.7744C88.3899 24.2206 87.3469 23.9476 86.1788 23.9552C85.4355 23.9552 84.7225 24.0993 84.0398 24.3875C83.3572 24.6758 82.7883 25.0854 82.3332 25.6163C82.298 25.6567 82.2639 25.6976 82.2308 25.7388V18.9489H79.1133V36.7666H82.208L82.2018 35.1021C82.2818 35.2002 82.3674 35.2961 82.4583 35.3898C82.9513 35.8981 83.5354 36.2962 84.2105 36.5844ZM87.3963 33.7059C86.888 34.0169 86.3078 34.1724 85.6554 34.1724C85.0107 34.1724 84.419 34.0131 83.8805 33.6946C83.3419 33.3683 82.9134 32.9247 82.5948 32.3633C82.2838 31.8021 82.1283 31.1648 82.1283 30.4518C82.1208 29.7388 82.2724 29.1017 82.5834 28.5404C82.902 27.9715 83.3305 27.5316 83.8692 27.2206C84.4077 26.902 85.0032 26.7465 85.6554 26.7541C86.3078 26.7465 86.888 26.8982 87.3963 27.2092C87.912 27.5126 88.3064 27.9488 88.5795 28.5176C88.8602 29.0789 89.0005 29.7237 89.0005 30.4518C89.0005 31.1801 88.8602 31.8248 88.5795 32.3861C88.3064 32.9474 87.912 33.3873 87.3963 33.7059ZM43.0714 20.0184H46.6213L49.7968 31.6154L53.1749 20.0184H56.1332L59.7968 31.3827L62.846 20.0184H66.1L61.2987 36.7665H58.238L54.5125 25.6645L51.0928 36.7665H47.998L43.0714 20.0184ZM71.3426 37.0623C70.1061 37.0699 68.9911 36.7968 67.9975 36.2431C67.0114 35.6818 66.234 34.9043 65.665 33.9106C65.1037 32.917 64.8231 31.783 64.8231 30.5086C64.8231 29.2723 65.1114 28.1535 65.6879 27.1523C66.2642 26.151 67.0455 25.3697 68.0316 24.8084C69.0177 24.2471 70.1175 23.9665 71.3311 23.9665C72.6965 23.9665 73.8911 24.2699 74.9151 24.8767C75.9467 25.4835 76.7166 26.3444 77.2249 27.4595C77.7406 28.5669 77.9265 29.8374 77.7824 31.271H68.0365C68.0638 31.8421 68.2062 32.3618 68.464 32.8298C68.7523 33.3455 69.1542 33.7475 69.67 34.0358C70.1859 34.324 70.7622 34.4681 71.3995 34.4681C71.8849 34.4605 72.3363 34.3771 72.7534 34.2179C73.1706 34.051 73.5232 33.8273 73.8115 33.5465C74.1074 33.2659 74.316 32.9474 74.4374 32.5909H77.6914C77.4941 33.4631 77.0997 34.2406 76.5081 34.9233C75.9164 35.5984 75.1731 36.1255 74.278 36.5048C73.383 36.884 72.4045 37.0699 71.3426 37.0623ZM68.4754 28.1421C68.2936 28.4591 68.1676 28.8004 68.0975 29.1661H74.5579C74.511 28.7041 74.3684 28.2832 74.1301 27.9032C73.857 27.4557 73.4854 27.1105 73.0151 26.8678C72.5449 26.6175 72.0139 26.4924 71.4222 26.4924C70.7926 26.4924 70.22 26.6365 69.7041 26.9247C69.1884 27.2129 68.7787 27.6188 68.4754 28.1421ZM94.5191 24.2282C94.5191 23.2118 94.7503 22.3092 95.2131 21.5203C95.6757 20.7239 96.3243 20.1057 97.1587 19.6657C98.0006 19.2182 98.983 18.9868 100.105 18.9717V21.7365C99.5821 21.7441 99.1346 21.854 98.763 22.0664C98.3988 22.2712 98.1182 22.5708 97.921 22.9653C97.7395 23.3284 97.6415 23.7494 97.6271 24.2282H100.037V26.8565H97.6252V36.7665H94.5191V26.8565H92.5166V24.2282H94.5191ZM112.336 37.0395C111.069 37.0395 109.935 36.7626 108.934 36.209C107.941 35.6476 107.159 34.874 106.59 33.8878C106.029 32.8942 105.748 31.7678 105.748 30.5086C105.748 29.242 106.029 28.1117 106.59 27.1181C107.159 26.1168 107.941 25.3393 108.934 24.7856C109.935 24.2319 111.069 23.955 112.336 23.955C113.61 23.955 114.748 24.2319 115.749 24.7856C116.758 25.3393 117.543 26.113 118.105 27.1067C118.666 28.1003 118.95 29.2343 118.958 30.5086C118.95 31.7678 118.666 32.8942 118.105 33.8878C117.551 34.874 116.77 35.6476 115.761 36.209C114.752 36.7626 113.61 37.0395 112.336 37.0395ZM112.336 34.1837C113.004 34.1837 113.595 34.032 114.111 33.7286C114.627 33.4176 115.025 32.9852 115.306 32.4315C115.586 31.8702 115.727 31.2292 115.727 30.5086C115.727 29.7805 115.586 29.1357 115.306 28.5744C115.025 28.0131 114.627 27.5808 114.111 27.2774C113.595 26.9664 113.004 26.8109 112.336 26.8109C111.676 26.8109 111.088 26.9664 110.573 27.2774C110.064 27.5808 109.67 28.0131 109.389 28.5744C109.109 29.1357 108.972 29.7805 108.98 30.5086C108.98 31.2292 109.12 31.8702 109.401 32.4315C109.689 32.9852 110.083 33.4176 110.584 33.7286C111.092 34.032 111.676 34.1837 112.336 34.1837ZM122.314 24.2282H118.856L122.599 36.7665H125.625L128.087 28.7583L130.745 36.7665H133.726L137.481 24.2282H134.352L132.222 32.0325L129.869 24.2282H126.843L124.501 32.2044L122.314 24.2282Z" fill="black"/>
<path d="M38.5716 16.75L27.0621 39.25H16.2513L21.0681 29.925H20.852C16.8782 35.0835 10.9492 38.4794 2.50134 39.25V30.0541C2.50134 30.0541 7.90566 29.7349 11.0827 26.3947H2.50134V16.7502H12.1459V24.6826L12.3623 24.6818L16.3035 16.7502H23.5973V24.6323L23.8137 24.632L27.9027 16.75H38.5716ZM101.334 36.7665H104.44V18.9375H101.334V36.7665ZM84.2105 36.5844C84.8855 36.8651 85.572 37.0054 86.2699 37.0054C87.4228 37.0054 88.4544 36.7248 89.3647 36.1634C90.2748 35.6022 90.9803 34.8286 91.4809 33.8424C91.9815 32.8488 92.2318 31.7223 92.2318 30.4632C92.2318 29.2041 91.9739 28.0777 91.4582 27.084C90.9423 26.0904 90.2255 25.3205 89.3077 24.7744C88.3899 24.2206 87.3469 23.9476 86.1788 23.9552C85.4355 23.9552 84.7225 24.0993 84.0398 24.3875C83.3572 24.6758 82.7883 25.0854 82.3332 25.6163C82.298 25.6567 82.2639 25.6976 82.2308 25.7388V18.9489H79.1133V36.7666H82.208L82.2018 35.1021C82.2818 35.2002 82.3674 35.2961 82.4583 35.3898C82.9513 35.8981 83.5354 36.2962 84.2105 36.5844ZM87.3963 33.7059C86.888 34.0169 86.3078 34.1724 85.6554 34.1724C85.0107 34.1724 84.419 34.0131 83.8805 33.6946C83.3419 33.3683 82.9134 32.9247 82.5948 32.3633C82.2838 31.8021 82.1283 31.1648 82.1283 30.4518C82.1208 29.7388 82.2724 29.1017 82.5834 28.5404C82.902 27.9715 83.3305 27.5316 83.8692 27.2206C84.4077 26.902 85.0032 26.7465 85.6554 26.7541C86.3078 26.7465 86.888 26.8982 87.3963 27.2092C87.912 27.5126 88.3064 27.9488 88.5795 28.5176C88.8602 29.0789 89.0005 29.7237 89.0005 30.4518C89.0005 31.1801 88.8602 31.8248 88.5795 32.3861C88.3064 32.9474 87.912 33.3873 87.3963 33.7059ZM43.0714 20.0184H46.6213L49.7968 31.6154L53.1749 20.0184H56.1332L59.7968 31.3827L62.846 20.0184H66.1L61.2987 36.7665H58.238L54.5125 25.6645L51.0928 36.7665H47.998L43.0714 20.0184ZM71.3426 37.0623C70.1061 37.0699 68.9911 36.7968 67.9975 36.2431C67.0114 35.6818 66.234 34.9043 65.665 33.9106C65.1037 32.917 64.8231 31.783 64.8231 30.5086C64.8231 29.2723 65.1114 28.1535 65.6879 27.1523C66.2642 26.151 67.0455 25.3697 68.0316 24.8084C69.0177 24.2471 70.1175 23.9665 71.3311 23.9665C72.6965 23.9665 73.8911 24.2699 74.9151 24.8767C75.9467 25.4835 76.7166 26.3444 77.2249 27.4595C77.7406 28.5669 77.9265 29.8374 77.7824 31.271H68.0365C68.0638 31.8421 68.2062 32.3618 68.464 32.8298C68.7523 33.3455 69.1542 33.7475 69.67 34.0358C70.1859 34.324 70.7622 34.4681 71.3995 34.4681C71.8849 34.4605 72.3363 34.3771 72.7534 34.2179C73.1706 34.051 73.5232 33.8273 73.8115 33.5465C74.1074 33.2659 74.316 32.9474 74.4374 32.5909H77.6914C77.4941 33.4631 77.0997 34.2406 76.5081 34.9233C75.9164 35.5984 75.1731 36.1255 74.278 36.5048C73.383 36.884 72.4045 37.0699 71.3426 37.0623ZM68.4754 28.1421C68.2936 28.4591 68.1676 28.8004 68.0975 29.1661H74.5579C74.511 28.7041 74.3684 28.2832 74.1301 27.9032C73.857 27.4557 73.4854 27.1105 73.0151 26.8678C72.5449 26.6175 72.0139 26.4924 71.4222 26.4924C70.7926 26.4924 70.22 26.6365 69.7041 26.9247C69.1884 27.2129 68.7787 27.6188 68.4754 28.1421ZM94.5191 24.2282C94.5191 23.2118 94.7503 22.3092 95.2131 21.5203C95.6757 20.7239 96.3243 20.1057 97.1587 19.6657C98.0006 19.2182 98.983 18.9868 100.105 18.9717V21.7365C99.5821 21.7441 99.1346 21.854 98.763 22.0664C98.3988 22.2712 98.1182 22.5708 97.921 22.9653C97.7395 23.3284 97.6415 23.7494 97.6271 24.2282H100.037V26.8565H97.6252V36.7665H94.5191V26.8565H92.5166V24.2282H94.5191ZM112.336 37.0395C111.069 37.0395 109.935 36.7626 108.934 36.209C107.941 35.6476 107.159 34.874 106.59 33.8878C106.029 32.8942 105.748 31.7678 105.748 30.5086C105.748 29.242 106.029 28.1117 106.59 27.1181C107.159 26.1168 107.941 25.3393 108.934 24.7856C109.935 24.2319 111.069 23.955 112.336 23.955C113.61 23.955 114.748 24.2319 115.749 24.7856C116.758 25.3393 117.543 26.113 118.105 27.1067C118.666 28.1003 118.95 29.2343 118.958 30.5086C118.95 31.7678 118.666 32.8942 118.105 33.8878C117.551 34.874 116.77 35.6476 115.761 36.209C114.752 36.7626 113.61 37.0395 112.336 37.0395ZM112.336 34.1837C113.004 34.1837 113.595 34.032 114.111 33.7286C114.627 33.4176 115.025 32.9852 115.306 32.4315C115.586 31.8702 115.727 31.2292 115.727 30.5086C115.727 29.7805 115.586 29.1357 115.306 28.5744C115.025 28.0131 114.627 27.5808 114.111 27.2774C113.595 26.9664 113.004 26.8109 112.336 26.8109C111.676 26.8109 111.088 26.9664 110.573 27.2774C110.064 27.5808 109.67 28.0131 109.389 28.5744C109.109 29.1357 108.972 29.7805 108.98 30.5086C108.98 31.2292 109.12 31.8702 109.401 32.4315C109.689 32.9852 110.083 33.4176 110.584 33.7286C111.092 34.032 111.676 34.1837 112.336 34.1837ZM122.314 24.2282H118.856L122.599 36.7665H125.625L128.087 28.7583L130.745 36.7665H133.726L137.481 24.2282H134.352L132.222 32.0325L129.869 24.2282H126.843L124.501 32.2044L122.314 24.2282Z" fill="black"/>
<path fill-rule="evenodd" clip-rule="evenodd" d="M38.5716 16.75L27.0621 39.25H16.2513L21.0681 29.925H20.852C16.8782 35.0835 10.9492 38.4794 2.50134 39.25V30.0541C2.50134 30.0541 7.90566 29.7349 11.0827 26.3947H2.50134V16.7502H12.1459V24.6826L12.3623 24.6818L16.3035 16.7502H23.5973V24.6323L23.8137 24.632L27.9027 16.75H38.5716ZM101.334 36.7665H104.44V18.9375H101.334V36.7665ZM84.2105 36.5844C84.8855 36.8651 85.572 37.0054 86.2699 37.0054C87.4228 37.0054 88.4544 36.7248 89.3647 36.1634C90.2748 35.6022 90.9803 34.8286 91.4809 33.8424C91.9815 32.8488 92.2318 31.7223 92.2318 30.4632C92.2318 29.2041 91.9739 28.0777 91.4582 27.084C90.9423 26.0904 90.2255 25.3205 89.3077 24.7744C88.3899 24.2206 87.3469 23.9476 86.1788 23.9552C85.4355 23.9552 84.7225 24.0993 84.0398 24.3875C83.3572 24.6758 82.7883 25.0854 82.3332 25.6163C82.298 25.6567 82.2639 25.6976 82.2308 25.7388V18.9489H79.1133V36.7666H82.208L82.2018 35.1021C82.2818 35.2002 82.3674 35.2961 82.4583 35.3898C82.9513 35.8981 83.5354 36.2962 84.2105 36.5844ZM87.3963 33.7059C86.888 34.0169 86.3078 34.1724 85.6554 34.1724C85.0107 34.1724 84.419 34.0131 83.8805 33.6946C83.3419 33.3683 82.9134 32.9247 82.5948 32.3633C82.2838 31.8021 82.1283 31.1648 82.1283 30.4518C82.1208 29.7388 82.2724 29.1017 82.5834 28.5404C82.902 27.9715 83.3305 27.5316 83.8692 27.2206C84.4077 26.902 85.0032 26.7465 85.6554 26.7541C86.3078 26.7465 86.888 26.8982 87.3963 27.2092C87.912 27.5126 88.3064 27.9488 88.5795 28.5176C88.8602 29.0789 89.0005 29.7237 89.0005 30.4518C89.0005 31.1801 88.8602 31.8248 88.5795 32.3861C88.3064 32.9474 87.912 33.3873 87.3963 33.7059ZM43.0714 20.0184H46.6213L49.7968 31.6154L53.1749 20.0184H56.1332L59.7968 31.3827L62.846 20.0184H66.1L61.2987 36.7665H58.238L54.5125 25.6645L51.0928 36.7665H47.998L43.0714 20.0184ZM71.3426 37.0623C70.1061 37.0699 68.9911 36.7968 67.9975 36.2431C67.0114 35.6818 66.234 34.9043 65.665 33.9106C65.1037 32.917 64.8231 31.783 64.8231 30.5086C64.8231 29.2723 65.1114 28.1535 65.6879 27.1523C66.2642 26.151 67.0455 25.3697 68.0316 24.8084C69.0177 24.2471 70.1175 23.9665 71.3311 23.9665C72.6965 23.9665 73.8911 24.2699 74.9151 24.8767C75.9467 25.4835 76.7166 26.3444 77.2249 27.4595C77.7406 28.5669 77.9265 29.8374 77.7824 31.271H68.0365C68.0638 31.8421 68.2062 32.3618 68.464 32.8298C68.7523 33.3455 69.1542 33.7475 69.67 34.0358C70.1859 34.324 70.7622 34.4681 71.3995 34.4681C71.8849 34.4605 72.3363 34.3771 72.7534 34.2179C73.1706 34.051 73.5232 33.8273 73.8115 33.5465C74.1074 33.2659 74.316 32.9474 74.4374 32.5909H77.6914C77.4941 33.4631 77.0997 34.2406 76.5081 34.9233C75.9164 35.5984 75.1731 36.1255 74.278 36.5048C73.383 36.884 72.4045 37.0699 71.3426 37.0623ZM68.4754 28.1421C68.2936 28.4591 68.1676 28.8004 68.0975 29.1661H74.5579C74.511 28.7041 74.3684 28.2832 74.1301 27.9032C73.857 27.4557 73.4854 27.1105 73.0151 26.8678C72.5449 26.6175 72.0139 26.4924 71.4222 26.4924C70.7926 26.4924 70.22 26.6365 69.7041 26.9247C69.1884 27.2129 68.7787 27.6188 68.4754 28.1421ZM94.5191 24.2282C94.5191 23.2118 94.7503 22.3092 95.2131 21.5203C95.6757 20.7239 96.3243 20.1057 97.1587 19.6657C98.0006 19.2182 98.983 18.9868 100.105 18.9717V21.7365C99.5821 21.7441 99.1346 21.854 98.763 22.0664C98.3988 22.2712 98.1182 22.5708 97.921 22.9653C97.7395 23.3284 97.6415 23.7494 97.6271 24.2282H100.037V26.8565H97.6252V36.7665H94.5191V26.8565H92.5166V24.2282H94.5191ZM112.336 37.0395C111.069 37.0395 109.935 36.7626 108.934 36.209C107.941 35.6476 107.159 34.874 106.59 33.8878C106.029 32.8942 105.748 31.7678 105.748 30.5086C105.748 29.242 106.029 28.1117 106.59 27.1181C107.159 26.1168 107.941 25.3393 108.934 24.7856C109.935 24.2319 111.069 23.955 112.336 23.955C113.61 23.955 114.748 24.2319 115.749 24.7856C116.758 25.3393 117.543 26.113 118.105 27.1067C118.666 28.1003 118.95 29.2343 118.958 30.5086C118.95 31.7678 118.666 32.8942 118.105 33.8878C117.551 34.874 116.77 35.6476 115.761 36.209C114.752 36.7626 113.61 37.0395 112.336 37.0395ZM112.336 34.1837C113.004 34.1837 113.595 34.032 114.111 33.7286C114.627 33.4176 115.025 32.9852 115.306 32.4315C115.586 31.8702 115.727 31.2292 115.727 30.5086C115.727 29.7805 115.586 29.1357 115.306 28.5744C115.025 28.0131 114.627 27.5808 114.111 27.2774C113.595 26.9664 113.004 26.8109 112.336 26.8109C111.676 26.8109 111.088 26.9664 110.573 27.2774C110.064 27.5808 109.67 28.0131 109.389 28.5744C109.109 29.1357 108.972 29.7805 108.98 30.5086C108.98 31.2292 109.12 31.8702 109.401 32.4315C109.689 32.9852 110.083 33.4176 110.584 33.7286C111.092 34.032 111.676 34.1837 112.336 34.1837ZM122.314 24.2282H118.856L122.599 36.7665H125.625L128.087 28.7583L130.745 36.7665H133.726L137.481 24.2282H134.352L132.222 32.0325L129.869 24.2282H126.843L124.501 32.2044L122.314 24.2282Z" fill="black"/>
<path d="M38.5716 16.75L27.0621 39.25H16.2513L21.0681 29.925H20.852C16.8782 35.0835 10.9492 38.4794 2.50134 39.25V30.0541C2.50134 30.0541 7.90566 29.7349 11.0827 26.3947H2.50134V16.7502H12.1459V24.6826L12.3623 24.6818L16.3035 16.7502H23.5973V24.6323L23.8137 24.632L27.9027 16.75H38.5716ZM101.334 36.7665H104.44V18.9375H101.334V36.7665ZM84.2105 36.5844C84.8855 36.8651 85.572 37.0054 86.2699 37.0054C87.4228 37.0054 88.4544 36.7248 89.3647 36.1634C90.2748 35.6022 90.9803 34.8286 91.4809 33.8424C91.9815 32.8488 92.2318 31.7223 92.2318 30.4632C92.2318 29.2041 91.9739 28.0777 91.4582 27.084C90.9423 26.0904 90.2255 25.3205 89.3077 24.7744C88.3899 24.2206 87.3469 23.9476 86.1788 23.9552C85.4355 23.9552 84.7225 24.0993 84.0398 24.3875C83.3572 24.6758 82.7883 25.0854 82.3332 25.6163C82.298 25.6567 82.2639 25.6976 82.2308 25.7388V18.9489H79.1133V36.7666H82.208L82.2018 35.1021C82.2818 35.2002 82.3674 35.2961 82.4583 35.3898C82.9513 35.8981 83.5354 36.2962 84.2105 36.5844ZM87.3963 33.7059C86.888 34.0169 86.3078 34.1724 85.6554 34.1724C85.0107 34.1724 84.419 34.0131 83.8805 33.6946C83.3419 33.3683 82.9134 32.9247 82.5948 32.3633C82.2838 31.8021 82.1283 31.1648 82.1283 30.4518C82.1208 29.7388 82.2724 29.1017 82.5834 28.5404C82.902 27.9715 83.3305 27.5316 83.8692 27.2206C84.4077 26.902 85.0032 26.7465 85.6554 26.7541C86.3078 26.7465 86.888 26.8982 87.3963 27.2092C87.912 27.5126 88.3064 27.9488 88.5795 28.5176C88.8602 29.0789 89.0005 29.7237 89.0005 30.4518C89.0005 31.1801 88.8602 31.8248 88.5795 32.3861C88.3064 32.9474 87.912 33.3873 87.3963 33.7059ZM43.0714 20.0184H46.6213L49.7968 31.6154L53.1749 20.0184H56.1332L59.7968 31.3827L62.846 20.0184H66.1L61.2987 36.7665H58.238L54.5125 25.6645L51.0928 36.7665H47.998L43.0714 20.0184ZM71.3426 37.0623C70.1061 37.0699 68.9911 36.7968 67.9975 36.2431C67.0114 35.6818 66.234 34.9043 65.665 33.9106C65.1037 32.917 64.8231 31.783 64.8231 30.5086C64.8231 29.2723 65.1114 28.1535 65.6879 27.1523C66.2642 26.151 67.0455 25.3697 68.0316 24.8084C69.0177 24.2471 70.1175 23.9665 71.3311 23.9665C72.6965 23.9665 73.8911 24.2699 74.9151 24.8767C75.9467 25.4835 76.7166 26.3444 77.2249 27.4595C77.7406 28.5669 77.9265 29.8374 77.7824 31.271H68.0365C68.0638 31.8421 68.2062 32.3618 68.464 32.8298C68.7523 33.3455 69.1542 33.7475 69.67 34.0358C70.1859 34.324 70.7622 34.4681 71.3995 34.4681C71.8849 34.4605 72.3363 34.3771 72.7534 34.2179C73.1706 34.051 73.5232 33.8273 73.8115 33.5465C74.1074 33.2659 74.316 32.9474 74.4374 32.5909H77.6914C77.4941 33.4631 77.0997 34.2406 76.5081 34.9233C75.9164 35.5984 75.1731 36.1255 74.278 36.5048C73.383 36.884 72.4045 37.0699 71.3426 37.0623ZM68.4754 28.1421C68.2936 28.4591 68.1676 28.8004 68.0975 29.1661H74.5579C74.511 28.7041 74.3684 28.2832 74.1301 27.9032C73.857 27.4557 73.4854 27.1105 73.0151 26.8678C72.5449 26.6175 72.0139 26.4924 71.4222 26.4924C70.7926 26.4924 70.22 26.6365 69.7041 26.9247C69.1884 27.2129 68.7787 27.6188 68.4754 28.1421ZM94.5191 24.2282C94.5191 23.2118 94.7503 22.3092 95.2131 21.5203C95.6757 20.7239 96.3243 20.1057 97.1587 19.6657C98.0006 19.2182 98.983 18.9868 100.105 18.9717V21.7365C99.5821 21.7441 99.1346 21.854 98.763 22.0664C98.3988 22.2712 98.1182 22.5708 97.921 22.9653C97.7395 23.3284 97.6415 23.7494 97.6271 24.2282H100.037V26.8565H97.6252V36.7665H94.5191V26.8565H92.5166V24.2282H94.5191ZM112.336 37.0395C111.069 37.0395 109.935 36.7626 108.934 36.209C107.941 35.6476 107.159 34.874 106.59 33.8878C106.029 32.8942 105.748 31.7678 105.748 30.5086C105.748 29.242 106.029 28.1117 106.59 27.1181C107.159 26.1168 107.941 25.3393 108.934 24.7856C109.935 24.2319 111.069 23.955 112.336 23.955C113.61 23.955 114.748 24.2319 115.749 24.7856C116.758 25.3393 117.543 26.113 118.105 27.1067C118.666 28.1003 118.95 29.2343 118.958 30.5086C118.95 31.7678 118.666 32.8942 118.105 33.8878C117.551 34.874 116.77 35.6476 115.761 36.209C114.752 36.7626 113.61 37.0395 112.336 37.0395ZM112.336 34.1837C113.004 34.1837 113.595 34.032 114.111 33.7286C114.627 33.4176 115.025 32.9852 115.306 32.4315C115.586 31.8702 115.727 31.2292 115.727 30.5086C115.727 29.7805 115.586 29.1357 115.306 28.5744C115.025 28.0131 114.627 27.5808 114.111 27.2774C113.595 26.9664 113.004 26.8109 112.336 26.8109C111.676 26.8109 111.088 26.9664 110.573 27.2774C110.064 27.5808 109.67 28.0131 109.389 28.5744C109.109 29.1357 108.972 29.7805 108.98 30.5086C108.98 31.2292 109.12 31.8702 109.401 32.4315C109.689 32.9852 110.083 33.4176 110.584 33.7286C111.092 34.032 111.676 34.1837 112.336 34.1837ZM122.314 24.2282H118.856L122.599 36.7665H125.625L128.087 28.7583L130.745 36.7665H133.726L137.481 24.2282H134.352L132.222 32.0325L129.869 24.2282H126.843L124.501 32.2044L122.314 24.2282Z" fill="black"/>
<path fill-rule="evenodd" clip-rule="evenodd" d="M38.5716 16.75L27.0621 39.25H16.2513L21.0681 29.925H20.852C16.8782 35.0835 10.9492 38.4794 2.50134 39.25V30.0541C2.50134 30.0541 7.90566 29.7349 11.0827 26.3947H2.50134V16.7502H12.1459V24.6826L12.3623 24.6818L16.3035 16.7502H23.5973V24.6323L23.8137 24.632L27.9027 16.75H38.5716ZM101.334 36.7665H104.44V18.9375H101.334V36.7665ZM84.2105 36.5844C84.8855 36.8651 85.572 37.0054 86.2699 37.0054C87.4228 37.0054 88.4544 36.7248 89.3647 36.1634C90.2748 35.6022 90.9803 34.8286 91.4809 33.8424C91.9815 32.8488 92.2318 31.7223 92.2318 30.4632C92.2318 29.2041 91.9739 28.0777 91.4582 27.084C90.9423 26.0904 90.2255 25.3205 89.3077 24.7744C88.3899 24.2206 87.3469 23.9476 86.1788 23.9552C85.4355 23.9552 84.7225 24.0993 84.0398 24.3875C83.3572 24.6758 82.7883 25.0854 82.3332 25.6163C82.298 25.6567 82.2639 25.6976 82.2308 25.7388V18.9489H79.1133V36.7666H82.208L82.2018 35.1021C82.2818 35.2002 82.3674 35.2961 82.4583 35.3898C82.9513 35.8981 83.5354 36.2962 84.2105 36.5844ZM87.3963 33.7059C86.888 34.0169 86.3078 34.1724 85.6554 34.1724C85.0107 34.1724 84.419 34.0131 83.8805 33.6946C83.3419 33.3683 82.9134 32.9247 82.5948 32.3633C82.2838 31.8021 82.1283 31.1648 82.1283 30.4518C82.1208 29.7388 82.2724 29.1017 82.5834 28.5404C82.902 27.9715 83.3305 27.5316 83.8692 27.2206C84.4077 26.902 85.0032 26.7465 85.6554 26.7541C86.3078 26.7465 86.888 26.8982 87.3963 27.2092C87.912 27.5126 88.3064 27.9488 88.5795 28.5176C88.8602 29.0789 89.0005 29.7237 89.0005 30.4518C89.0005 31.1801 88.8602 31.8248 88.5795 32.3861C88.3064 32.9474 87.912 33.3873 87.3963 33.7059ZM43.0714 20.0184H46.6213L49.7968 31.6154L53.1749 20.0184H56.1332L59.7968 31.3827L62.846 20.0184H66.1L61.2987 36.7665H58.238L54.5125 25.6645L51.0928 36.7665H47.998L43.0714 20.0184ZM71.3426 37.0623C70.1061 37.0699 68.9911 36.7968 67.9975 36.2431C67.0114 35.6818 66.234 34.9043 65.665 33.9106C65.1037 32.917 64.8231 31.783 64.8231 30.5086C64.8231 29.2723 65.1114 28.1535 65.6879 27.1523C66.2642 26.151 67.0455 25.3697 68.0316 24.8084C69.0177 24.2471 70.1175 23.9665 71.3311 23.9665C72.6965 23.9665 73.8911 24.2699 74.9151 24.8767C75.9467 25.4835 76.7166 26.3444 77.2249 27.4595C77.7406 28.5669 77.9265 29.8374 77.7824 31.271H68.0365C68.0638 31.8421 68.2062 32.3618 68.464 32.8298C68.7523 33.3455 69.1542 33.7475 69.67 34.0358C70.1859 34.324 70.7622 34.4681 71.3995 34.4681C71.8849 34.4605 72.3363 34.3771 72.7534 34.2179C73.1706 34.051 73.5232 33.8273 73.8115 33.5465C74.1074 33.2659 74.316 32.9474 74.4374 32.5909H77.6914C77.4941 33.4631 77.0997 34.2406 76.5081 34.9233C75.9164 35.5984 75.1731 36.1255 74.278 36.5048C73.383 36.884 72.4045 37.0699 71.3426 37.0623ZM68.4754 28.1421C68.2936 28.4591 68.1676 28.8004 68.0975 29.1661H74.5579C74.511 28.7041 74.3684 28.2832 74.1301 27.9032C73.857 27.4557 73.4854 27.1105 73.0151 26.8678C72.5449 26.6175 72.0139 26.4924 71.4222 26.4924C70.7926 26.4924 70.22 26.6365 69.7041 26.9247C69.1884 27.2129 68.7787 27.6188 68.4754 28.1421ZM94.5191 24.2282C94.5191 23.2118 94.7503 22.3092 95.2131 21.5203C95.6757 20.7239 96.3243 20.1057 97.1587 19.6657C98.0006 19.2182 98.983 18.9868 100.105 18.9717V21.7365C99.5821 21.7441 99.1346 21.854 98.763 22.0664C98.3988 22.2712 98.1182 22.5708 97.921 22.9653C97.7395 23.3284 97.6415 23.7494 97.6271 24.2282H100.037V26.8565H97.6252V36.7665H94.5191V26.8565H92.5166V24.2282H94.5191ZM112.336 37.0395C111.069 37.0395 109.935 36.7626 108.934 36.209C107.941 35.6476 107.159 34.874 106.59 33.8878C106.029 32.8942 105.748 31.7678 105.748 30.5086C105.748 29.242 106.029 28.1117 106.59 27.1181C107.159 26.1168 107.941 25.3393 108.934 24.7856C109.935 24.2319 111.069 23.955 112.336 23.955C113.61 23.955 114.748 24.2319 115.749 24.7856C116.758 25.3393 117.543 26.113 118.105 27.1067C118.666 28.1003 118.95 29.2343 118.958 30.5086C118.95 31.7678 118.666 32.8942 118.105 33.8878C117.551 34.874 116.77 35.6476 115.761 36.209C114.752 36.7626 113.61 37.0395 112.336 37.0395ZM112.336 34.1837C113.004 34.1837 113.595 34.032 114.111 33.7286C114.627 33.4176 115.025 32.9852 115.306 32.4315C115.586 31.8702 115.727 31.2292 115.727 30.5086C115.727 29.7805 115.586 29.1357 115.306 28.5744C115.025 28.0131 114.627 27.5808 114.111 27.2774C113.595 26.9664 113.004 26.8109 112.336 26.8109C111.676 26.8109 111.088 26.9664 110.573 27.2774C110.064 27.5808 109.67 28.0131 109.389 28.5744C109.109 29.1357 108.972 29.7805 108.98 30.5086C108.98 31.2292 109.12 31.8702 109.401 32.4315C109.689 32.9852 110.083 33.4176 110.584 33.7286C111.092 34.032 111.676 34.1837 112.336 34.1837ZM122.314 24.2282H118.856L122.599 36.7665H125.625L128.087 28.7583L130.745 36.7665H133.726L137.481 24.2282H134.352L132.222 32.0325L129.869 24.2282H126.843L124.501 32.2044L122.314 24.2282Z" fill="black"/>
<path d="M38.5716 16.75L27.0621 39.25H16.2513L21.0681 29.925H20.852C16.8782 35.0835 10.9492 38.4794 2.50134 39.25V30.0541C2.50134 30.0541 7.90566 29.7349 11.0827 26.3947H2.50134V16.7502H12.1459V24.6826L12.3623 24.6818L16.3035 16.7502H23.5973V24.6323L23.8137 24.632L27.9027 16.75H38.5716ZM101.334 36.7665H104.44V18.9375H101.334V36.7665ZM84.2105 36.5844C84.8855 36.8651 85.572 37.0054 86.2699 37.0054C87.4228 37.0054 88.4544 36.7248 89.3647 36.1634C90.2748 35.6022 90.9803 34.8286 91.4809 33.8424C91.9815 32.8488 92.2318 31.7223 92.2318 30.4632C92.2318 29.2041 91.9739 28.0777 91.4582 27.084C90.9423 26.0904 90.2255 25.3205 89.3077 24.7744C88.3899 24.2206 87.3469 23.9476 86.1788 23.9552C85.4355 23.9552 84.7225 24.0993 84.0398 24.3875C83.3572 24.6758 82.7883 25.0854 82.3332 25.6163C82.298 25.6567 82.2639 25.6976 82.2308 25.7388V18.9489H79.1133V36.7666H82.208L82.2018 35.1021C82.2818 35.2002 82.3674 35.2961 82.4583 35.3898C82.9513 35.8981 83.5354 36.2962 84.2105 36.5844ZM87.3963 33.7059C86.888 34.0169 86.3078 34.1724 85.6554 34.1724C85.0107 34.1724 84.419 34.0131 83.8805 33.6946C83.3419 33.3683 82.9134 32.9247 82.5948 32.3633C82.2838 31.8021 82.1283 31.1648 82.1283 30.4518C82.1208 29.7388 82.2724 29.1017 82.5834 28.5404C82.902 27.9715 83.3305 27.5316 83.8692 27.2206C84.4077 26.902 85.0032 26.7465 85.6554 26.7541C86.3078 26.7465 86.888 26.8982 87.3963 27.2092C87.912 27.5126 88.3064 27.9488 88.5795 28.5176C88.8602 29.0789 89.0005 29.7237 89.0005 30.4518C89.0005 31.1801 88.8602 31.8248 88.5795 32.3861C88.3064 32.9474 87.912 33.3873 87.3963 33.7059ZM43.0714 20.0184H46.6213L49.7968 31.6154L53.1749 20.0184H56.1332L59.7968 31.3827L62.846 20.0184H66.1L61.2987 36.7665H58.238L54.5125 25.6645L51.0928 36.7665H47.998L43.0714 20.0184ZM71.3426 37.0623C70.1061 37.0699 68.9911 36.7968 67.9975 36.2431C67.0114 35.6818 66.234 34.9043 65.665 33.9106C65.1037 32.917 64.8231 31.783 64.8231 30.5086C64.8231 29.2723 65.1114 28.1535 65.6879 27.1523C66.2642 26.151 67.0455 25.3697 68.0316 24.8084C69.0177 24.2471 70.1175 23.9665 71.3311 23.9665C72.6965 23.9665 73.8911 24.2699 74.9151 24.8767C75.9467 25.4835 76.7166 26.3444 77.2249 27.4595C77.7406 28.5669 77.9265 29.8374 77.7824 31.271H68.0365C68.0638 31.8421 68.2062 32.3618 68.464 32.8298C68.7523 33.3455 69.1542 33.7475 69.67 34.0358C70.1859 34.324 70.7622 34.4681 71.3995 34.4681C71.8849 34.4605 72.3363 34.3771 72.7534 34.2179C73.1706 34.051 73.5232 33.8273 73.8115 33.5465C74.1074 33.2659 74.316 32.9474 74.4374 32.5909H77.6914C77.4941 33.4631 77.0997 34.2406 76.5081 34.9233C75.9164 35.5984 75.1731 36.1255 74.278 36.5048C73.383 36.884 72.4045 37.0699 71.3426 37.0623ZM68.4754 28.1421C68.2936 28.4591 68.1676 28.8004 68.0975 29.1661H74.5579C74.511 28.7041 74.3684 28.2832 74.1301 27.9032C73.857 27.4557 73.4854 27.1105 73.0151 26.8678C72.5449 26.6175 72.0139 26.4924 71.4222 26.4924C70.7926 26.4924 70.22 26.6365 69.7041 26.9247C69.1884 27.2129 68.7787 27.6188 68.4754 28.1421ZM94.5191 24.2282C94.5191 23.2118 94.7503 22.3092 95.2131 21.5203C95.6757 20.7239 96.3243 20.1057 97.1587 19.6657C98.0006 19.2182 98.983 18.9868 100.105 18.9717V21.7365C99.5821 21.7441 99.1346 21.854 98.763 22.0664C98.3988 22.2712 98.1182 22.5708 97.921 22.9653C97.7395 23.3284 97.6415 23.7494 97.6271 24.2282H100.037V26.8565H97.6252V36.7665H94.5191V26.8565H92.5166V24.2282H94.5191ZM112.336 37.0395C111.069 37.0395 109.935 36.7626 108.934 36.209C107.941 35.6476 107.159 34.874 106.59 33.8878C106.029 32.8942 105.748 31.7678 105.748 30.5086C105.748 29.242 106.029 28.1117 106.59 27.1181C107.159 26.1168 107.941 25.3393 108.934 24.7856C109.935 24.2319 111.069 23.955 112.336 23.955C113.61 23.955 114.748 24.2319 115.749 24.7856C116.758 25.3393 117.543 26.113 118.105 27.1067C118.666 28.1003 118.95 29.2343 118.958 30.5086C118.95 31.7678 118.666 32.8942 118.105 33.8878C117.551 34.874 116.77 35.6476 115.761 36.209C114.752 36.7626 113.61 37.0395 112.336 37.0395ZM112.336 34.1837C113.004 34.1837 113.595 34.032 114.111 33.7286C114.627 33.4176 115.025 32.9852 115.306 32.4315C115.586 31.8702 115.727 31.2292 115.727 30.5086C115.727 29.7805 115.586 29.1357 115.306 28.5744C115.025 28.0131 114.627 27.5808 114.111 27.2774C113.595 26.9664 113.004 26.8109 112.336 26.8109C111.676 26.8109 111.088 26.9664 110.573 27.2774C110.064 27.5808 109.67 28.0131 109.389 28.5744C109.109 29.1357 108.972 29.7805 108.98 30.5086C108.98 31.2292 109.12 31.8702 109.401 32.4315C109.689 32.9852 110.083 33.4176 110.584 33.7286C111.092 34.032 111.676 34.1837 112.336 34.1837ZM122.314 24.2282H118.856L122.599 36.7665H125.625L128.087 28.7583L130.745 36.7665H133.726L137.481 24.2282H134.352L132.222 32.0325L129.869 24.2282H126.843L124.501 32.2044L122.314 24.2282Z" fill="black"/>
<path fill-rule="evenodd" clip-rule="evenodd" d="M38.5716 16.75L27.0621 39.25H16.2513L21.0681 29.925H20.852C16.8782 35.0835 10.9492 38.4794 2.50134 39.25V30.0541C2.50134 30.0541 7.90566 29.7349 11.0827 26.3947H2.50134V16.7502H12.1459V24.6826L12.3623 24.6818L16.3035 16.7502H23.5973V24.6323L23.8137 24.632L27.9027 16.75H38.5716ZM101.334 36.7665H104.44V18.9375H101.334V36.7665ZM84.2105 36.5844C84.8855 36.8651 85.572 37.0054 86.2699 37.0054C87.4228 37.0054 88.4544 36.7248 89.3647 36.1634C90.2748 35.6022 90.9803 34.8286 91.4809 33.8424C91.9815 32.8488 92.2318 31.7223 92.2318 30.4632C92.2318 29.2041 91.9739 28.0777 91.4582 27.084C90.9423 26.0904 90.2255 25.3205 89.3077 24.7744C88.3899 24.2206 87.3469 23.9476 86.1788 23.9552C85.4355 23.9552 84.7225 24.0993 84.0398 24.3875C83.3572 24.6758 82.7883 25.0854 82.3332 25.6163C82.298 25.6567 82.2639 25.6976 82.2308 25.7388V18.9489H79.1133V36.7666H82.208L82.2018 35.1021C82.2818 35.2002 82.3674 35.2961 82.4583 35.3898C82.9513 35.8981 83.5354 36.2962 84.2105 36.5844ZM87.3963 33.7059C86.888 34.0169 86.3078 34.1724 85.6554 34.1724C85.0107 34.1724 84.419 34.0131 83.8805 33.6946C83.3419 33.3683 82.9134 32.9247 82.5948 32.3633C82.2838 31.8021 82.1283 31.1648 82.1283 30.4518C82.1208 29.7388 82.2724 29.1017 82.5834 28.5404C82.902 27.9715 83.3305 27.5316 83.8692 27.2206C84.4077 26.902 85.0032 26.7465 85.6554 26.7541C86.3078 26.7465 86.888 26.8982 87.3963 27.2092C87.912 27.5126 88.3064 27.9488 88.5795 28.5176C88.8602 29.0789 89.0005 29.7237 89.0005 30.4518C89.0005 31.1801 88.8602 31.8248 88.5795 32.3861C88.3064 32.9474 87.912 33.3873 87.3963 33.7059ZM43.0714 20.0184H46.6213L49.7968 31.6154L53.1749 20.0184H56.1332L59.7968 31.3827L62.846 20.0184H66.1L61.2987 36.7665H58.238L54.5125 25.6645L51.0928 36.7665H47.998L43.0714 20.0184ZM71.3426 37.0623C70.1061 37.0699 68.9911 36.7968 67.9975 36.2431C67.0114 35.6818 66.234 34.9043 65.665 33.9106C65.1037 32.917 64.8231 31.783 64.8231 30.5086C64.8231 29.2723 65.1114 28.1535 65.6879 27.1523C66.2642 26.151 67.0455 25.3697 68.0316 24.8084C69.0177 24.2471 70.1175 23.9665 71.3311 23.9665C72.6965 23.9665 73.8911 24.2699 74.9151 24.8767C75.9467 25.4835 76.7166 26.3444 77.2249 27.4595C77.7406 28.5669 77.9265 29.8374 77.7824 31.271H68.0365C68.0638 31.8421 68.2062 32.3618 68.464 32.8298C68.7523 33.3455 69.1542 33.7475 69.67 34.0358C70.1859 34.324 70.7622 34.4681 71.3995 34.4681C71.8849 34.4605 72.3363 34.3771 72.7534 34.2179C73.1706 34.051 73.5232 33.8273 73.8115 33.5465C74.1074 33.2659 74.316 32.9474 74.4374 32.5909H77.6914C77.4941 33.4631 77.0997 34.2406 76.5081 34.9233C75.9164 35.5984 75.1731 36.1255 74.278 36.5048C73.383 36.884 72.4045 37.0699 71.3426 37.0623ZM68.4754 28.1421C68.2936 28.4591 68.1676 28.8004 68.0975 29.1661H74.5579C74.511 28.7041 74.3684 28.2832 74.1301 27.9032C73.857 27.4557 73.4854 27.1105 73.0151 26.8678C72.5449 26.6175 72.0139 26.4924 71.4222 26.4924C70.7926 26.4924 70.22 26.6365 69.7041 26.9247C69.1884 27.2129 68.7787 27.6188 68.4754 28.1421ZM94.5191 24.2282C94.5191 23.2118 94.7503 22.3092 95.2131 21.5203C95.6757 20.7239 96.3243 20.1057 97.1587 19.6657C98.0006 19.2182 98.983 18.9868 100.105 18.9717V21.7365C99.5821 21.7441 99.1346 21.854 98.763 22.0664C98.3988 22.2712 98.1182 22.5708 97.921 22.9653C97.7395 23.3284 97.6415 23.7494 97.6271 24.2282H100.037V26.8565H97.6252V36.7665H94.5191V26.8565H92.5166V24.2282H94.5191ZM112.336 37.0395C111.069 37.0395 109.935 36.7626 108.934 36.209C107.941 35.6476 107.159 34.874 106.59 33.8878C106.029 32.8942 105.748 31.7678 105.748 30.5086C105.748 29.242 106.029 28.1117 106.59 27.1181C107.159 26.1168 107.941 25.3393 108.934 24.7856C109.935 24.2319 111.069 23.955 112.336 23.955C113.61 23.955 114.748 24.2319 115.749 24.7856C116.758 25.3393 117.543 26.113 118.105 27.1067C118.666 28.1003 118.95 29.2343 118.958 30.5086C118.95 31.7678 118.666 32.8942 118.105 33.8878C117.551 34.874 116.77 35.6476 115.761 36.209C114.752 36.7626 113.61 37.0395 112.336 37.0395ZM112.336 34.1837C113.004 34.1837 113.595 34.032 114.111 33.7286C114.627 33.4176 115.025 32.9852 115.306 32.4315C115.586 31.8702 115.727 31.2292 115.727 30.5086C115.727 29.7805 115.586 29.1357 115.306 28.5744C115.025 28.0131 114.627 27.5808 114.111 27.2774C113.595 26.9664 113.004 26.8109 112.336 26.8109C111.676 26.8109 111.088 26.9664 110.573 27.2774C110.064 27.5808 109.67 28.0131 109.389 28.5744C109.109 29.1357 108.972 29.7805 108.98 30.5086C108.98 31.2292 109.12 31.8702 109.401 32.4315C109.689 32.9852 110.083 33.4176 110.584 33.7286C111.092 34.032 111.676 34.1837 112.336 34.1837ZM122.314 24.2282H118.856L122.599 36.7665H125.625L128.087 28.7583L130.745 36.7665H133.726L137.481 24.2282H134.352L132.222 32.0325L129.869 24.2282H126.843L124.501 32.2044L122.314 24.2282Z" fill="black"/>
<path d="M38.5716 16.75L27.0621 39.25H16.2513L21.0681 29.925H20.852C16.8782 35.0835 10.9492 38.4794 2.50134 39.25V30.0541C2.50134 30.0541 7.90566 29.7349 11.0827 26.3947H2.50134V16.7502H12.1459V24.6826L12.3623 24.6818L16.3035 16.7502H23.5973V24.6323L23.8137 24.632L27.9027 16.75H38.5716ZM101.334 36.7665H104.44V18.9375H101.334V36.7665ZM84.2105 36.5844C84.8855 36.8651 85.572 37.0054 86.2699 37.0054C87.4228 37.0054 88.4544 36.7248 89.3647 36.1634C90.2748 35.6022 90.9803 34.8286 91.4809 33.8424C91.9815 32.8488 92.2318 31.7223 92.2318 30.4632C92.2318 29.2041 91.9739 28.0777 91.4582 27.084C90.9423 26.0904 90.2255 25.3205 89.3077 24.7744C88.3899 24.2206 87.3469 23.9476 86.1788 23.9552C85.4355 23.9552 84.7225 24.0993 84.0398 24.3875C83.3572 24.6758 82.7883 25.0854 82.3332 25.6163C82.298 25.6567 82.2639 25.6976 82.2308 25.7388V18.9489H79.1133V36.7666H82.208L82.2018 35.1021C82.2818 35.2002 82.3674 35.2961 82.4583 35.3898C82.9513 35.8981 83.5354 36.2962 84.2105 36.5844ZM87.3963 33.7059C86.888 34.0169 86.3078 34.1724 85.6554 34.1724C85.0107 34.1724 84.419 34.0131 83.8805 33.6946C83.3419 33.3683 82.9134 32.9247 82.5948 32.3633C82.2838 31.8021 82.1283 31.1648 82.1283 30.4518C82.1208 29.7388 82.2724 29.1017 82.5834 28.5404C82.902 27.9715 83.3305 27.5316 83.8692 27.2206C84.4077 26.902 85.0032 26.7465 85.6554 26.7541C86.3078 26.7465 86.888 26.8982 87.3963 27.2092C87.912 27.5126 88.3064 27.9488 88.5795 28.5176C88.8602 29.0789 89.0005 29.7237 89.0005 30.4518C89.0005 31.1801 88.8602 31.8248 88.5795 32.3861C88.3064 32.9474 87.912 33.3873 87.3963 33.7059ZM43.0714 20.0184H46.6213L49.7968 31.6154L53.1749 20.0184H56.1332L59.7968 31.3827L62.846 20.0184H66.1L61.2987 36.7665H58.238L54.5125 25.6645L51.0928 36.7665H47.998L43.0714 20.0184ZM71.3426 37.0623C70.1061 37.0699 68.9911 36.7968 67.9975 36.2431C67.0114 35.6818 66.234 34.9043 65.665 33.9106C65.1037 32.917 64.8231 31.783 64.8231 30.5086C64.8231 29.2723 65.1114 28.1535 65.6879 27.1523C66.2642 26.151 67.0455 25.3697 68.0316 24.8084C69.0177 24.2471 70.1175 23.9665 71.3311 23.9665C72.6965 23.9665 73.8911 24.2699 74.9151 24.8767C75.9467 25.4835 76.7166 26.3444 77.2249 27.4595C77.7406 28.5669 77.9265 29.8374 77.7824 31.271H68.0365C68.0638 31.8421 68.2062 32.3618 68.464 32.8298C68.7523 33.3455 69.1542 33.7475 69.67 34.0358C70.1859 34.324 70.7622 34.4681 71.3995 34.4681C71.8849 34.4605 72.3363 34.3771 72.7534 34.2179C73.1706 34.051 73.5232 33.8273 73.8115 33.5465C74.1074 33.2659 74.316 32.9474 74.4374 32.5909H77.6914C77.4941 33.4631 77.0997 34.2406 76.5081 34.9233C75.9164 35.5984 75.1731 36.1255 74.278 36.5048C73.383 36.884 72.4045 37.0699 71.3426 37.0623ZM68.4754 28.1421C68.2936 28.4591 68.1676 28.8004 68.0975 29.1661H74.5579C74.511 28.7041 74.3684 28.2832 74.1301 27.9032C73.857 27.4557 73.4854 27.1105 73.0151 26.8678C72.5449 26.6175 72.0139 26.4924 71.4222 26.4924C70.7926 26.4924 70.22 26.6365 69.7041 26.9247C69.1884 27.2129 68.7787 27.6188 68.4754 28.1421ZM94.5191 24.2282C94.5191 23.2118 94.7503 22.3092 95.2131 21.5203C95.6757 20.7239 96.3243 20.1057 97.1587 19.6657C98.0006 19.2182 98.983 18.9868 100.105 18.9717V21.7365C99.5821 21.7441 99.1346 21.854 98.763 22.0664C98.3988 22.2712 98.1182 22.5708 97.921 22.9653C97.7395 23.3284 97.6415 23.7494 97.6271 24.2282H100.037V26.8565H97.6252V36.7665H94.5191V26.8565H92.5166V24.2282H94.5191ZM112.336 37.0395C111.069 37.0395 109.935 36.7626 108.934 36.209C107.941 35.6476 107.159 34.874 106.59 33.8878C106.029 32.8942 105.748 31.7678 105.748 30.5086C105.748 29.242 106.029 28.1117 106.59 27.1181C107.159 26.1168 107.941 25.3393 108.934 24.7856C109.935 24.2319 111.069 23.955 112.336 23.955C113.61 23.955 114.748 24.2319 115.749 24.7856C116.758 25.3393 117.543 26.113 118.105 27.1067C118.666 28.1003 118.95 29.2343 118.958 30.5086C118.95 31.7678 118.666 32.8942 118.105 33.8878C117.551 34.874 116.77 35.6476 115.761 36.209C114.752 36.7626 113.61 37.0395 112.336 37.0395ZM112.336 34.1837C113.004 34.1837 113.595 34.032 114.111 33.7286C114.627 33.4176 115.025 32.9852 115.306 32.4315C115.586 31.8702 115.727 31.2292 115.727 30.5086C115.727 29.7805 115.586 29.1357 115.306 28.5744C115.025 28.0131 114.627 27.5808 114.111 27.2774C113.595 26.9664 113.004 26.8109 112.336 26.8109C111.676 26.8109 111.088 26.9664 110.573 27.2774C110.064 27.5808 109.67 28.0131 109.389 28.5744C109.109 29.1357 108.972 29.7805 108.98 30.5086C108.98 31.2292 109.12 31.8702 109.401 32.4315C109.689 32.9852 110.083 33.4176 110.584 33.7286C111.092 34.032 111.676 34.1837 112.336 34.1837ZM122.314 24.2282H118.856L122.599 36.7665H125.625L128.087 28.7583L130.745 36.7665H133.726L137.481 24.2282H134.352L132.222 32.0325L129.869 24.2282H126.843L124.501 32.2044L122.314 24.2282Z" fill="black"/>
</svg>
