<svg width="20" height="20" viewBox="0 0 20 20" fill="none" xmlns="http://www.w3.org/2000/svg">
<path d="M9.07088 1.21195C9.41462 0.395494 10.5854 0.395495 10.9291 1.21196L12.9579 6.03084C13.1029 6.37504 13.4306 6.61022 13.8067 6.64001L19.0727 7.05709C19.9649 7.12775 20.3267 8.22774 19.6469 8.80301L15.6348 12.1983C15.3482 12.4408 15.223 12.8214 15.3106 13.1839L16.5363 18.2606C16.744 19.1207 15.7969 19.8006 15.033 19.3397L10.5245 16.6192C10.2025 16.4248 9.7975 16.4248 9.47548 16.6192L4.96699 19.3397C4.20311 19.8006 3.25596 19.1207 3.46363 18.2606L4.68942 13.1839C4.77698 12.8214 4.65182 12.4408 4.36526 12.1983L0.353062 8.80301C-0.326718 8.22774 0.0350679 7.12775 0.927291 7.05709L6.19336 6.64001C6.5695 6.61022 6.89716 6.37504 7.04207 6.03084L9.07088 1.21195Z" fill="black"/>
</svg>
