<svg width="16" height="16" viewBox="0 0 16 16" fill="none" xmlns="http://www.w3.org/2000/svg">
<path fill-rule="evenodd" clip-rule="evenodd" d="M15.9144 6.05599L15.9782 6.25599C16.0307 6.40694 15.9865 6.57471 15.8665 6.67999L11.9892 10L13.138 14.976C13.1769 15.135 13.1172 15.302 12.9864 15.4L12.8109 15.52C12.7427 15.5736 12.6582 15.6018 12.5716 15.6C12.4985 15.6015 12.4266 15.5821 12.3642 15.544L8.00016 12.88L3.66011 15.544C3.59771 15.5821 3.52573 15.6015 3.45267 15.6C3.36607 15.6018 3.28151 15.5736 3.21334 15.52L3.01388 15.4C2.88308 15.302 2.8234 15.135 2.8623 14.976L4.01114 10L0.14179 6.68799C0.0156063 6.58334 -0.0321581 6.41091 0.0221197 6.25599L0.109878 6.05599C0.15654 5.89793 0.296829 5.78603 0.460912 5.77599L5.55888 5.36799L7.5135 0.655991C7.57613 0.499507 7.72831 0.397778 7.89645 0.399991H8.10385C8.27049 0.396446 8.42105 0.49923 8.47881 0.655991L10.4654 5.36799L15.5634 5.77599C15.7275 5.78603 15.8677 5.89793 15.9144 6.05599ZM11.2871 13.248L10.3936 9.504L13.3215 6.99999L9.48409 6.69599L8.00016 3.12799V11.24L11.2871 13.248Z" fill="black"/>
</svg>
